<?xml version="1.0" encoding="utf-8"?>
<!-- Generator: Adobe Illustrator 16.0.3, SVG Export Plug-In . SVG Version: 6.00 Build 0)  -->
<!DOCTYPE svg PUBLIC "-//W3C//DTD SVG 1.1//EN" "http://www.w3.org/Graphics/SVG/1.1/DTD/svg11.dtd">
<svg version="1.1" id="Ebene_1" xmlns="http://www.w3.org/2000/svg" xmlns:xlink="http://www.w3.org/1999/xlink" x="0px" y="0px"
	 width="280px" height="100px" viewBox="0 0 280 100" enable-background="new 0 0 280 100" xml:space="preserve">
<g>
	<path fill="#00527F" d="M100.453,71.806h6.265c1.682,0,3.006,0.484,3.847,1.304c0.609,0.631,0.946,1.409,0.946,2.354v0.043
		c0,1.912-1.177,2.9-2.333,3.405c1.745,0.525,3.153,1.534,3.153,3.552v0.042c0,2.523-2.123,4.016-5.339,4.016h-6.538V71.806z
		 M106.445,78.365c1.997,0,3.384-0.903,3.384-2.627v-0.043c0-1.45-1.155-2.396-3.258-2.396h-4.478v5.066H106.445z M107.033,85.029
		c2.229,0,3.616-0.987,3.616-2.628v-0.042c0-1.598-1.345-2.522-3.91-2.522h-4.646v5.192H107.033z"/>
	<path fill="#00527F" d="M114.536,83.369v-0.042c0-2.334,1.892-3.554,4.646-3.554c1.387,0,2.354,0.189,3.321,0.463V79.9
		c0-1.935-1.177-2.943-3.216-2.943c-1.282,0-2.291,0.315-3.3,0.777l-0.483-1.324c1.198-0.547,2.354-0.925,3.952-0.925
		c1.535,0,2.733,0.42,3.511,1.198c0.757,0.757,1.135,1.808,1.135,3.195v6.643h-1.598v-1.618c-0.756,0.967-1.997,1.85-3.91,1.85
		C116.555,86.753,114.536,85.597,114.536,83.369z M122.525,82.527v-1.009c-0.799-0.231-1.85-0.462-3.175-0.462
		c-2.018,0-3.174,0.883-3.174,2.186v0.042c0,1.366,1.261,2.166,2.733,2.166C120.906,85.45,122.525,84.251,122.525,82.527z"/>
	<path fill="#00527F" d="M127.674,71.177h1.618v15.345h-1.618V71.177z"/>
	<path fill="#00527F" d="M133.622,83.643v-6.56h-1.513v-1.43h1.513v-3.279h1.619v3.279h3.448v1.43h-3.448v6.349
		c0,1.324,0.736,1.808,1.83,1.808c0.546,0,1.008-0.104,1.576-0.378v1.387c-0.568,0.295-1.177,0.464-1.955,0.464
		C134.946,86.712,133.622,85.85,133.622,83.643z"/>
	<path fill="#00527F" d="M141.589,71.491h1.851v1.787h-1.851V71.491z M141.693,75.653h1.619v10.868h-1.619V75.653z"/>
	<path fill="#00527F" d="M146.401,81.14v-0.041c0-3.069,2.397-5.677,5.571-5.677c2.061,0,3.343,0.862,4.352,1.935l-1.072,1.135
		c-0.861-0.903-1.828-1.641-3.3-1.641c-2.208,0-3.89,1.872-3.89,4.206v0.042c0,2.354,1.725,4.225,3.994,4.225
		c1.388,0,2.46-0.692,3.321-1.619l1.03,0.968c-1.093,1.22-2.396,2.103-4.436,2.103C148.799,86.774,146.401,84.189,146.401,81.14z"/>
	<path fill="#00527F" d="M164.689,84.377l1.029-1.219c1.535,1.387,3.007,2.081,5.045,2.081c1.977,0,3.28-1.05,3.28-2.502v-0.041
		c0-1.367-0.736-2.145-3.826-2.796c-3.384-0.736-4.939-1.829-4.939-4.247v-0.042c0-2.313,2.039-4.015,4.834-4.015
		c2.145,0,3.68,0.609,5.172,1.808l-0.967,1.283c-1.366-1.115-2.733-1.599-4.246-1.599c-1.913,0-3.133,1.052-3.133,2.375v0.043
		c0,1.387,0.757,2.165,3.994,2.858c3.279,0.715,4.794,1.913,4.794,4.162v0.042c0,2.522-2.103,4.163-5.025,4.163
		C168.368,86.732,166.454,85.954,164.689,84.377z"/>
	<path fill="#00527F" d="M183.629,85.365c1.492,0,2.544-0.609,3.427-1.535l1.009,0.905c-1.094,1.219-2.417,2.039-4.479,2.039
		c-2.983,0-5.423-2.291-5.423-5.676c0-3.153,2.207-5.677,5.214-5.677c3.217,0,5.065,2.565,5.065,5.76c0,0.147,0,0.315-0.021,0.567
		h-8.619C180.034,84.042,181.716,85.365,183.629,85.365z M186.803,80.446c-0.188-1.976-1.324-3.657-3.469-3.657
		c-1.87,0-3.3,1.555-3.531,3.657H186.803z"/>
	<path fill="#00527F" d="M190.46,83.369v-0.042c0-2.334,1.892-3.554,4.646-3.554c1.387,0,2.354,0.189,3.321,0.463V79.9
		c0-1.935-1.178-2.943-3.217-2.943c-1.283,0-2.292,0.315-3.301,0.777l-0.483-1.324c1.198-0.547,2.354-0.925,3.952-0.925
		c1.535,0,2.732,0.42,3.511,1.198c0.756,0.757,1.135,1.808,1.135,3.195v6.643h-1.597v-1.618c-0.758,0.967-1.998,1.85-3.911,1.85
		C192.478,86.753,190.46,85.597,190.46,83.369z M198.448,82.527v-1.009c-0.799-0.231-1.85-0.462-3.175-0.462
		c-2.018,0-3.175,0.883-3.175,2.186v0.042c0,1.366,1.262,2.166,2.734,2.166C196.829,85.45,198.448,84.251,198.448,82.527z"/>
	<path fill="#00527F" d="M210.027,71.806h6.328c1.809,0,3.26,0.547,4.184,1.473c0.715,0.715,1.136,1.745,1.136,2.9v0.043
		c0,2.438-1.682,3.867-3.994,4.288l4.52,6.012h-2.039l-4.267-5.718h-0.043h-4.162v5.718h-1.662V71.806z M216.209,79.312
		c2.208,0,3.784-1.136,3.784-3.027v-0.042c0-1.809-1.388-2.901-3.764-2.901h-4.54v5.971H216.209z"/>
	<path fill="#00527F" d="M229.535,85.365c1.493,0,2.544-0.609,3.428-1.535l1.008,0.905c-1.093,1.219-2.417,2.039-4.477,2.039
		c-2.986,0-5.423-2.291-5.423-5.676c0-3.153,2.205-5.677,5.212-5.677c3.216,0,5.066,2.565,5.066,5.76c0,0.147,0,0.315-0.021,0.567
		h-8.618C225.941,84.042,227.623,85.365,229.535,85.365z M232.71,80.446c-0.189-1.976-1.325-3.657-3.47-3.657
		c-1.87,0-3.299,1.555-3.53,3.657H232.71z"/>
	<path fill="#00527F" d="M237.06,88.414l0.736-1.261c1.24,0.902,2.628,1.387,4.184,1.387c2.396,0,3.953-1.325,3.953-3.868v-1.283
		c-0.947,1.262-2.271,2.292-4.27,2.292c-2.605,0-5.107-1.955-5.107-5.087v-0.042c0-3.174,2.522-5.13,5.107-5.13
		c2.04,0,3.364,1.009,4.247,2.187v-1.955h1.618v8.978c0,1.681-0.504,2.963-1.387,3.846c-0.968,0.967-2.417,1.45-4.142,1.45
		C240.192,89.927,238.511,89.423,237.06,88.414z M245.974,80.572V80.53c0-2.228-1.935-3.68-3.994-3.68
		c-2.061,0-3.764,1.431-3.764,3.659v0.042c0,2.186,1.745,3.699,3.764,3.699C244.039,84.251,245.974,82.759,245.974,80.572z"/>
	<path fill="#00527F" d="M251.186,71.491h1.85v1.787h-1.85V71.491z M251.29,75.653h1.62v10.868h-1.62V75.653z"/>
	<path fill="#00527F" d="M255.999,81.14v-0.041c0-3.069,2.396-5.677,5.677-5.677c3.257,0,5.654,2.565,5.654,5.635v0.042
		c0,3.069-2.417,5.676-5.698,5.676C258.375,86.774,255.999,84.209,255.999,81.14z M265.669,81.14v-0.041
		c0-2.334-1.744-4.248-4.037-4.248c-2.354,0-3.972,1.914-3.972,4.206v0.042c0,2.333,1.723,4.225,4.016,4.225
		C264.029,85.323,265.669,83.432,265.669,81.14z"/>
	<path fill="#00527F" d="M270.251,75.653h1.618v1.893c0.715-1.178,1.851-2.124,3.722-2.124c2.628,0,4.162,1.767,4.162,4.352v6.748
		h-1.619v-6.348c0-2.019-1.093-3.28-3.006-3.28c-1.87,0-3.259,1.367-3.259,3.406v6.222h-1.618V75.653z"/>
</g>
<g>
	<path fill="#00527F" d="M254.135,46.012c0,7.305,5.191,11.485,10.936,11.485c3.72,0,5.972-1.517,8.037-3.997v1.195
		c0,4.41-2.25,6.706-7.028,6.706c-3.261,0-5.787-0.826-8.313-2.251l-2.39,5.237c3.125,1.654,6.891,2.573,10.887,2.573
		c4.779,0,8.316-1.012,10.612-3.309c2.068-2.067,3.123-5.282,3.123-9.693V49.1c-2.327-0.443-4.722-0.867-7.171-1.271
		c-0.76,2.353-2.992,3.88-5.737,3.88c-3.37,0-5.925-2.259-5.968-5.611c-2.28-0.3-4.6-0.585-6.955-0.854
		c-0.011,0.226-0.032,0.445-0.032,0.678V46.012z"/>
	<path fill="#00527F" d="M226.801,47.344c0,7.534,5.466,12.725,12.862,12.725c4.456,0,7.764-1.745,10.06-4.593l-3.996-3.538
		c-1.929,1.791-3.628,2.527-5.973,2.527c-3.123,0-5.328-1.653-6.018-4.823h17.135c0.047-0.645,0.093-1.288,0.093-1.837
		c0-1.002-0.086-1.985-0.243-2.945c-2.228-0.236-4.483-0.461-6.771-0.672c0.093,0.348,0.164,0.711,0.214,1.089h-10.519
		c0.119-0.687,0.305-1.317,0.546-1.892c-2.217-0.161-4.453-0.311-6.712-0.447c-0.436,1.353-0.679,2.801-0.679,4.314V47.344z"/>
	<path fill="#00527F" d="M216.004,59.518v-9.096c0-4.1,1.387-6.697,3.798-7.898c-3.553-0.168-7.151-0.305-10.781-0.412v17.406
		H216.004z"/>
	<path fill="#00527F" d="M196.8,59.518v-9.096c0-4.969,2.039-7.732,5.471-8.471c-3.991-0.076-8.018-0.115-12.072-0.115
		c-0.127,0-0.255,0.001-0.381,0.001v17.681H196.8z"/>
	<path fill="#00527F" d="M160.46,47.344c0,7.534,5.466,12.725,12.862,12.725c4.457,0,7.764-1.745,10.061-4.593l-3.997-3.538
		c-1.928,1.791-3.63,2.527-5.973,2.527c-3.123,0-5.328-1.653-6.018-4.823h17.135c0.047-0.645,0.093-1.288,0.093-1.837
		c0-2.085-0.343-4.111-1.033-5.935c-2.347,0.023-4.683,0.062-7.006,0.109c0.645,0.872,1.067,1.994,1.239,3.297h-10.519
		c0.209-1.2,0.609-2.241,1.181-3.072c-2.417,0.083-4.818,0.179-7.2,0.288c-0.532,1.476-0.825,3.081-0.825,4.76V47.344z"/>
	<path fill="#00527F" d="M150.903,59.932c2.343,0,4.042-0.552,5.512-1.425v-5.604c-1.011,0.551-2.158,0.872-3.445,0.872
		c-1.562,0-2.251-0.78-2.251-2.389v-8.313c-2.353,0.152-4.679,0.318-6.983,0.498v8.962C143.735,58.232,146.63,59.932,150.903,59.932
		"/>
	<path fill="#00527F" d="M130.458,45.973v2.396V58.61v0.899h6.983V47.336v-0.092c0-1.072-0.119-2.114-0.337-3.115
		c-2.268,0.205-4.513,0.424-6.727,0.656C130.426,45.162,130.458,45.551,130.458,45.973"/>
	<path fill="#00527F" d="M113.715,47.336V59.51h6.983V58.61V48.369v-2.397c0-0.021,0.002-0.039,0.002-0.06
		c-2.366,0.303-4.692,0.621-6.974,0.957c-0.003,0.125-0.012,0.249-0.012,0.375V47.336z"/>
	<path fill="#00527F" d="M107.472,59.518V47.844c-2.415,0.4-4.776,0.818-7.075,1.256v10.418H107.472z"/>
</g>
<g>
	<path fill="#37A8DB" d="M261.119,46.012V45.92c0-3.354,2.571-5.697,5.971-5.697s6.02,2.343,6.02,5.697v0.092
		c0,0.646-0.1,1.255-0.282,1.816c2.449,0.404,4.844,0.828,7.173,1.271V34.895h-6.983v3.216c-1.884-2.067-4.134-3.676-7.948-3.676
		c-5.471,0-10.584,3.887-10.901,10.807c2.354,0.27,4.675,0.555,6.957,0.854C261.122,46.068,261.119,46.041,261.119,46.012"/>
	<path fill="#37A8DB" d="M238.974,40.04c2.584,0,4.314,1.632,4.979,4.147c2.283,0.211,4.541,0.435,6.769,0.672
		c-0.937-5.733-4.702-10.424-11.747-10.424c-5.623,0-9.904,3.571-11.494,8.502c2.259,0.139,4.495,0.286,6.712,0.447
		C235.063,41.313,236.707,40.04,238.974,40.04"/>
	<path fill="#37A8DB" d="M223.491,41.739h0.368v-7.304c-4.134-0.184-6.433,2.021-7.855,5.421v-4.962h-6.983v7.219
		c3.63,0.105,7.227,0.242,10.781,0.408C220.849,42.001,222.086,41.739,223.491,41.739"/>
	<path fill="#37A8DB" d="M202.271,41.951c0.628-0.137,1.299-0.212,2.018-0.212h0.366v-7.304c-4.134-0.183-6.432,2.021-7.854,5.421
		v-4.962h-6.982v6.944c0.128,0,0.254-0.002,0.381-0.002C194.255,41.836,198.279,41.876,202.271,41.951"/>
	<path fill="#37A8DB" d="M172.633,40.04c1.715,0,3.05,0.722,3.95,1.94c2.324-0.05,4.66-0.087,7.008-0.111
		c-1.622-4.287-5.188-7.434-10.958-7.434c-5.454,0-9.649,3.356-11.347,8.057c2.381-0.109,4.782-0.205,7.199-0.288
		C169.427,40.839,170.835,40.04,172.633,40.04"/>
	<path fill="#37A8DB" d="M150.719,40.867h5.788v-5.972h-5.788v-6.293h-6.982v6.293h-2.94v5.972h2.94v2.704
		c2.304-0.178,4.631-0.344,6.982-0.496V40.867z"/>
	<path fill="#37A8DB" d="M123.59,40.915c0.462-0.22,1.485-0.434,1.988-0.434c0.503,0,1.526,0.214,1.987,0.434
		c1.777,0.845,2.581,2.108,2.811,3.871c2.213-0.233,4.457-0.452,6.727-0.657c-0.782-3.582-2.929-6.604-6.243-8.288
		c-1.521-0.773-3.286-1.408-5.282-1.408c-1.996,0-3.763,0.635-5.284,1.408c-4.13,2.099-6.451,6.276-6.567,11.028
		c2.281-0.336,4.607-0.654,6.974-0.957C120.713,43.529,121.453,41.932,123.59,40.915"/>
	<path fill="#37A8DB" d="M107.472,27.361h-7.075V49.1c2.298-0.438,4.66-0.855,7.075-1.256V27.361z"/>
</g>
<g>
	<path fill="#00527F" d="M56.536,34.234c-1.455,0-2.634,1.179-2.634,2.634v0.001v5.265v0.002c0,1.454,1.179,2.633,2.634,2.633
		c1.455,0,2.634-1.178,2.635-2.633l0,0v-5.268C59.17,35.414,57.991,34.234,56.536,34.234z"/>
	<path fill="#00527F" d="M64.438,30.02c-1.454,0-2.633,1.179-2.633,2.634c0,0,0,0.001,0,0.002v10.532c0,0.001,0,0.002,0,0.002
		c0,1.456,1.179,2.635,2.633,2.635c1.456,0,2.634-1.179,2.634-2.635l0,0V32.654C67.072,31.198,65.894,30.02,64.438,30.02z"/>
	<path fill="#37A8DB" d="M72.34,22.644c-1.455,0-2.634,1.179-2.634,2.634c0,0,0,0.001,0,0.002l0,15.8v0.002
		c0,1.455,1.18,2.635,2.634,2.635s2.634-1.18,2.634-2.635l0,0V25.278C74.974,23.823,73.795,22.644,72.34,22.644z"/>
	<path fill="#37A8DB" d="M80.243,13.688c-1.455,0-2.634,1.179-2.634,2.634c0,0.001,0,0.001,0,0.001v21.07c0,0.001,0,0.001,0,0.001
		c0,1.455,1.18,2.634,2.634,2.634c1.455,0,2.636-1.179,2.636-2.634l0,0V16.322C82.878,14.867,81.698,13.688,80.243,13.688z"/>
	<path fill="#37A8DB" d="M88.146,10.527c-1.455,0-2.634,1.179-2.634,2.634c0,0,0,0.001,0,0.002v15.8c0,0.001,0,0.001,0,0.002
		c0,1.455,1.178,2.633,2.634,2.633c1.454,0,2.635-1.179,2.635-2.633l0,0V13.161C90.781,11.707,89.6,10.527,88.146,10.527z"/>
	<path fill="#A3C300" d="M96.047,10c-1.454,0-2.633,1.18-2.633,2.634c0,0.001,0,0.001,0,0.001v10.533c0,0.001,0,0.001,0,0.002
		c0,1.455,1.179,2.635,2.633,2.635c1.455,0,2.635-1.18,2.635-2.635l0,0V12.634C98.682,11.18,97.502,10,96.047,10z"/>
	<path fill="#A3C300" d="M103.95,12.372c-1.455,0-2.634,1.178-2.634,2.634c0,0,0,0.001,0,0.001v5.264c0,0,0,0.001,0,0.002
		c0,1.455,1.179,2.634,2.634,2.634s2.635-1.179,2.635-2.634l0,0v-5.268C106.584,13.55,105.404,12.372,103.95,12.372z"/>
	<circle fill="#A3C300" cx="111.852" cy="19.483" r="2.634"/>
	<circle fill="#00527F" cx="48.634" cy="38.975" r="2.634"/>
</g>
</svg>
