<svg xmlns="http://www.w3.org/2000/svg" viewBox="1923 -15.83 171.771 32.784">
  <defs>
    <style>
      .cls-1 {
        fill: gray;
      }

      .cls-2 {
        fill: #fb1520;
      }
    </style>
  </defs>
  <g id="Group_86" data-name="Group 86" transform="translate(1923 -15.83)">
    <g id="Group_5" data-name="Group 5" transform="translate(41.135 0.997)">
      <path id="Path_22" data-name="Path 22" class="cls-1" d="M114.053.925h1.62v7.23h-1.62ZM104.33,8.03V.925h1.62V3.916L109.939.925h2.493L107.7,4.29l5.36,3.74h-2.618L106.2,4.914V8.03Zm-3.74-5.859H95.854v1.5h4.488a1.8,1.8,0,0,1,1.371.374,1.8,1.8,0,0,1,.374,1.371v1a2.005,2.005,0,0,1-.374,1.371,2.005,2.005,0,0,1-1.371.374H95.978a1.8,1.8,0,0,1-1.371-.374,1.8,1.8,0,0,1-.374-1.371V6.16l1.5-.249v.873h5.111V5.038H96.228a1.8,1.8,0,0,1-1.371-.374,2.005,2.005,0,0,1-.374-1.371V2.545a2.005,2.005,0,0,1,.374-1.371A3.336,3.336,0,0,1,96.228.925h4.114a2.005,2.005,0,0,1,1.371.374,1.654,1.654,0,0,1,.374,1.247V2.67l-1.5.374V2.171ZM84.386,8.03,81.643.8h1.745l1.87,4.861L87.128.8H88.25l1.994,4.861L91.99.8h1.5L90.743,8.03H89.621L87.627,3.044,85.632,8.03ZM73.541,6.783h5.485V2.171H73.541ZM71.8,2.545a2.005,2.005,0,0,1,.374-1.371A2.005,2.005,0,0,1,73.541.8h5.235a1.8,1.8,0,0,1,1.371.374,1.8,1.8,0,0,1,.374,1.371v3.74a2.005,2.005,0,0,1-.374,1.371,2.005,2.005,0,0,1-1.371.374H73.541a1.8,1.8,0,0,1-1.371-.374A1.8,1.8,0,0,1,71.8,6.285ZM62.821,8.03V.925h1.62V3.916L68.43.925H70.8L66.062,4.29l5.36,3.74H68.8L64.566,4.914V8.03Zm-10.845,0L56.09.8h1.62l4.114,7.23h-1.87l-.873-1.62H54.594l-.873,1.62Zm3.241-2.867h3.116L56.837,2.3ZM44.123,8.03V.925h6.108a1.654,1.654,0,0,1,1.247.374,1.524,1.524,0,0,1,.374,1.122V4.166c0,.5-.125.873-.374,1a1.654,1.654,0,0,1-1.247.374h-1L52.6,8.03H50.231L47.364,5.287h-1.62V8.03h-1.62Zm5.36-5.859h-3.74V4.166h3.74a.934.934,0,0,0,.623-.125c.125-.125.125-.249.125-.5V2.67c0-.249,0-.374-.125-.5h-.623M34.4,8.03V.925h1.745V3.916L40.134.925H42.5L37.641,4.29,43,8.03H40.383L36.145,4.914V8.03Z" transform="translate(-32.655 -0.8)"/>
      <path id="Path_23" data-name="Path 23" class="cls-1" d="M61.624,17.205V10.1h1.62v2.992L67.233,10.1H69.6l-4.737,3.366,5.36,3.74H67.607l-4.238-3.116v3.116Zm-9.848,0V10.1h6.108a1.654,1.654,0,0,1,1.247.374,1.415,1.415,0,0,1,.374,1v1.62c0,.5-.125.873-.374,1a1.654,1.654,0,0,1-1.247.374h-.873l3.241,2.742H57.884l-2.867-2.742H53.4v2.742h-1.62Zm5.485-5.859h-3.74v1.994h3.74a.934.934,0,0,0,.623-.125c.125-.125.125-.249.125-.5v-.873c0-.249,0-.374-.125-.5h-.623m-16.2,5.859L45.045,10.1h1.62l4.114,7.105h-1.87l-.873-1.62H43.549l-.873,1.62ZM44.3,14.463h3.116l-1.5-2.867ZM34.2,17.205V10.1h6.108a1.654,1.654,0,0,1,1.247.374,1.415,1.415,0,0,1,.374,1v1.62c0,.5-.125.873-.374,1a1.654,1.654,0,0,1-1.247.374H35.82v2.742H34.2Zm5.485-5.859h-3.74v1.87h3.74a.934.934,0,0,0,.623-.125c.125-.125.125-.249.125-.5v-.748c0-.249,0-.374-.125-.5h-.623" transform="translate(-32.704 1.493)"/>
      <path id="Path_24" data-name="Path 24" class="cls-1" d="M158.151,26.53V23.289l-3.74-3.989h2.244l2.493,2.742,2.493-2.742h1.994l-3.74,3.989V26.53Zm-12.839,0V19.3h1.122l5.111,4.238c.125.125.374.249.5.374l.374.374V19.3h1.5v7.23h-1.247l-5.235-4.487c-.125-.125-.249-.249-.374-.249l-.249-.249V26.53h-1.5Zm-9.224,0v-.748l4.986-5.111h-4.488V19.425h7.23v.748l-5.111,5.111h5.111v1.371h-7.728Zm-2.742-5.859h-4.487v4.487h4.487v-1.5l1.62.374v.873a2,2,0,0,1-.374,1.371,2.005,2.005,0,0,1-1.371.374h-4.238a1.8,1.8,0,0,1-1.371-.374,2.005,2.005,0,0,1-.374-1.371V21.17a2.005,2.005,0,0,1,.374-1.371,2.005,2.005,0,0,1,1.371-.374h4.238a1.8,1.8,0,0,1,1.371.374,2.005,2.005,0,0,1,.374,1.371v.623l-1.62.249Zm-10.1-1.371h1.62v7.23h-1.62Zm-3.864,1.371h-5.235v4.487h5.235v-1.62h-2.742V22.292H121v2.493a2.005,2.005,0,0,1-.374,1.371,2.005,2.005,0,0,1-1.371.374h-4.986a1.8,1.8,0,0,1-1.371-.374,2.005,2.005,0,0,1-.374-1.371v-3.74a2.005,2.005,0,0,1,.374-1.371,2.005,2.005,0,0,1,1.371-.374h4.986a1.8,1.8,0,0,1,1.371.374A1.654,1.654,0,0,1,121,20.92v.125l-1.62.249Zm-16.2,4.487h5.485V20.547h-5.485Zm-1.62-4.114a2.005,2.005,0,0,1,.374-1.371A2.005,2.005,0,0,1,103.3,19.3h5.235a1.8,1.8,0,0,1,1.371.374,2.005,2.005,0,0,1,.374,1.371v3.74a2.005,2.005,0,0,1-.374,1.371,2.005,2.005,0,0,1-1.371.374H103.3a1.8,1.8,0,0,1-1.371-.374,2.005,2.005,0,0,1-.374-1.371ZM93.706,26.53V19.3h1.62v5.859h5.36V26.53Zm-9.349-1.371h5.485V20.547H84.357Zm-1.62-4.114a2.005,2.005,0,0,1,.374-1.371,2.005,2.005,0,0,1,1.371-.374h5.235a1.8,1.8,0,0,1,1.371.374,2.005,2.005,0,0,1,.374,1.371v3.74a2.005,2.005,0,0,1-.374,1.371,2.005,2.005,0,0,1-1.371.374H84.482a1.8,1.8,0,0,1-1.371-.374,2.005,2.005,0,0,1-.374-1.371ZM72.016,26.53V19.3h1.122l5.111,4.238c.125.125.374.249.5.374l.374.374V19.3h1.5v7.23H79.5L74.26,22.042c-.125-.125-.249-.249-.374-.249l-.249-.249V26.53h-1.62Zm-10.969,0V19.3h1.62v2.742H67.9V19.3h1.745v7.23H67.9V23.414H62.667V26.53h-1.62Zm-3.74-5.859H52.82v4.487h4.487v-1.5l1.62.374v.873a2.005,2.005,0,0,1-.374,1.371,2.005,2.005,0,0,1-1.371.374H52.944a1.8,1.8,0,0,1-1.371-.374,2.005,2.005,0,0,1-.374-1.371V21.17a2.005,2.005,0,0,1,.374-1.371,2.005,2.005,0,0,1,1.371-.374h4.238a1.8,1.8,0,0,1,1.371.374,2.005,2.005,0,0,1,.374,1.371v.623l-1.62.249ZM41.975,26.53V19.3h7.355v1.247H43.6v1.62h3.366v1.247H43.6v1.745h5.734V26.53Zm-3.989-5.859V26.53h-1.62V20.671H33V19.425h8.352v1.247Z" transform="translate(-33 3.761)"/>
    </g>
    <path id="Path_25" data-name="Path 25" class="cls-2" d="M23.185,28.545a2.513,2.513,0,0,1-1.371-.374H21.69l-8.85-6.856-1.745,1.371-1.745-1.5V5.983l1.87-1.745,1.87,1.62V16.7L21.066,10.1h0a4.481,4.481,0,0,1,1.371-.249,2.265,2.265,0,0,1,2.368,2.244,2.344,2.344,0,0,1-2.368,2.244,1.581,1.581,0,0,1-.748-.125l-5.734,4.737,6.482,5.111a1.848,1.848,0,0,1,.873-.125,2.265,2.265,0,0,1,2.368,2.244,2.475,2.475,0,0,1-2.493,2.368M27.8,0H4.612A4.822,4.822,0,0,0,0,4.861V27.922a4.74,4.74,0,0,0,4.612,4.861H27.8a4.738,4.738,0,0,0,4.612-4.861V4.861A4.659,4.659,0,0,0,27.8,0"/>
  </g>
</svg>
