<svg height="512pt" viewBox="0 -14 512.00022 512" width="512pt" xmlns="http://www.w3.org/2000/svg"><path d="m149.75 229.15625c-.464844-4.117188-4.1875-7.078125-8.292969-6.609375-4.117187.460937-7.078125 4.175781-6.613281 8.292969 0 0 1.714844 15.199218 1.714844 15.207031.453125 4.003906 4.273437 7.066406 8.292968 6.613281 4.117188-.464844 7.078126-4.179687 6.613282-8.292968zm0 0"/><path d="m256.757812 149.695312s-57.945312 6.535157-58.007812 6.542969c-7.785156.878907-13.542969 8.097657-12.664062 15.882813 0 0 6.535156 57.929687 6.542968 58.007812.804688 7.132813 7.066406 12.753906 14.242188 12.753906.542968 0 59.648437-6.632812 59.648437-6.632812 7.867188-.890625 13.546875-8.015625 12.660157-15.882812 0 0-6.53125-57.910157-6.539063-58.007813-.554687-5.585937-2.054687-14.5-15.882813-12.664063zm-49.296874 78.121094-6.398438-56.746094 56.742188-6.398437 6.402343 56.742187zm0 0"/><path d="m499.328125 267.917969-62.183594-3.390625 7.109375-25.941406 43.976563 12.050781c7.839843 2.144531 15.398437-5.402344 13.253906-13.25-3.046875-11.148438-6.097656-22.296875-9.164063-33.441407 7.238282.335938 12.9375-6.597656 11.011719-13.628906-2.960937-10.828125-5.914062-21.65625-8.910156-32.472656 7.019531-.214844 11.871094-6.921875 10.1875-13.652344 0 0-16.273437-59.5-16.308594-59.621094-2.125-7.777343-12.109375-10.515624-17.902343-4.90625 0 0-44.421876 42.984376-44.421876 42.984376-5 4.835937-4.03125 13.226562 1.800782 16.921874-8.074219 7.796876-16.144532 15.601563-24.210938 23.40625-5.179687 5.015626-3.839844 14.003907 2.523438 17.320313 0 0-24.886719 24.082031-24.925782 24.121094-5.90625 5.714843-3.25 15.988281 4.648438 18.152343l43.976562 12.050782-7.964843 29.070312c-8.351563-.011718-11.953125-1.886718-15.585938 1.25l-38.742187 33.464844c-5.664063 4.890625-6.738282 13.234375-2.503906 19.402344l22.769531 33.257812c.203125.296875.152343.703125-.121094.9375l-68.03125 58.8125s30.757813-48.894531 30.78125-48.929687c3.246094-5.160157 1.664063-12.746094-2.125-17.132813l-26.050781-30.191406s22.308594-24.714844 22.339844-24.746094c6.609374-7.324218.402343-19.351562-9.367188-18.265625l-19.464844 2.171875s-10.183594-90.289062-10.207031-90.5c-1.082031-9.585937-15.992187-7.957031-14.90625 1.679688l10.207031 90.484375-115.625 12.90625-12.832031-113.789063c-.9375-8.324218-8.480469-14.339844-16.800781-13.394531l-66.652344 7.515625c-8.324219.9375-14.335938 8.476562-13.394531 16.804688l12.820312 113.675781-19.453125 2.171875-17.824218-158.042969 106.238281-85.328125c.875-.699219 2.085937-.839844 3.09375-.347656l122.574219 59.519531s4.226562 37.46875 4.234374 37.5625c1.105469 9.796875 15.972657 7.78125 14.878907-1.929687l-3.210938-28.457032c7.304688 1.917969 15.015625.496094 21.351563-4.121094 6.554687-4.773437 10.5-12.5 10.460937-20.609374-.050781-9.910157-5.613281-18.636719-14.351562-22.882813l-154.152344-74.855469c-6.195313-3.007812-13.667969-2.164062-19.039063 2.148438l-133.609374 107.308594c-6.84375 5.5-10.34375 13.992187-9.359376 22.71875 1.054688 9.367187 6.890626 17.105468 15.605469 20.695312 6.730469 2.773438 14.796875 2.554688 21.378907-.886719l16.824218 149.171875-34.972656 3.902344c-9.089844 1.015625-15.96875 8.703125-15.96875 17.851562v141.070313c0 9.917969 8.042969 17.960937 17.964844 17.960937h473.042968c9.917969 0 17.960938-8.039062 17.960938-17.960937v-185.761719c0-4.773437-3.082031-11.648437-12.671875-12.085937zm-23.617187-172.523438 12.480468 45.625-46.472656-12.730469zm-31.5 49.128907 33.5625 9.195312 9.140624 33.425781-67.609374-18.527343zm-21.515626 40.578124 52.902344 14.492188 9.46875 34.621094-88.164062-24.15625zm-403.128906-45.335937c-5.710937-3.921875-6.042968-12.496094-.648437-16.824219l133.609375-107.3125c.871094-.703125 2.085937-.839844 3.09375-.351562 0 0 153.9375 74.753906 154.152344 74.859375 12.234374 5.941406 2.824218 24.660156-9.148438 18.84375l-133.683594-64.914063c-6.195312-3.011718-13.671875-2.167968-19.039062 2.144532 0 0-115.867188 93.058593-115.867188 93.058593-2.980468 2.398438-8.96875 2.902344-12.46875.496094zm394.1875 138.507813 83.246094 4.539062v17.359375l-108.917969.277344zm-323.339844-94.523438c-.011718-.109375.066407-.207031.171876-.21875l66.652343-7.515625c.089844-.003906.207031.082031.214844.171875l12.832031 113.769531-67.050781 7.484375zm403.625 284.976562h-473.046874c-1.632813 0-2.960938-1.328124-2.960938-2.960937v-110.929687s27.539062-3.074219 27.597656-3.082032c9.554688-1.066406 7.976563-15.996094-1.664062-14.90625l-25.933594 2.894532v-15.046876c0-1.511718 1.132812-2.777343 2.632812-2.945312l305.652344-34.113281-17.765625 19.679687s-233.757812 26.089844-234.085937 26.125c-9.078125 1.015625-8.359375 14.957032.824218 14.957032.277344 0 233.828126-26.054688 233.828126-26.054688l27.792968 32.210938c.085938.097656.136719.21875.15625.34375 0 0-44.84375 71.28125-44.949218 71.453124-6.460938 10.265626 7.089843 21.925782 16.277343 13.984376l89.285157-77.167969c.046874-.042969.097656-.085938.148437-.132813 5.753906-5.242187 6.765625-14.039062 2.359375-20.457031l-18.613281-27.109375 115.425781-.296875v150.59375c0 1.632813-1.328125 2.960937-2.960938 2.960937zm0 0"/></svg>