<svg id="Layer_1" enable-background="new 0 0 512 512" height="512" viewBox="0 0 512 512" width="512" xmlns="http://www.w3.org/2000/svg"><path d="m410.576 136.325-22.766-44.631c-1.879-3.685-6.399-5.157-10.089-3.273l-48.354 24.665c-3.689 1.882-5.155 6.399-3.272 10.089l22.766 44.631c1.888 3.703 6.415 5.148 10.089 3.273l48.354-24.665c3.689-1.882 5.155-6.399 3.272-10.089zm-51.762 17.984-15.95-31.269 34.992-17.849 15.95 31.269z"/><path d="m264.394 31.304c-11.542 5.888-16.142 20.069-10.255 31.612 5.861 11.489 20.019 16.168 31.612 10.255 11.569-5.903 16.158-20.041 10.255-31.612-5.888-11.543-20.068-16.143-31.612-10.255zm14.542 28.505c-4.177 2.129-9.306.466-11.435-3.708-2.13-4.176-.466-9.306 3.708-11.435 4.157-2.12 9.295-.485 11.436 3.71 2.133 4.184.475 9.299-3.709 11.433z"/><path d="m504.5 87.001h-36.717c-15.666 0-29.853 7.264-38.94 19.112l-30.893-60.565 2.26-1.153c4.846-2.471 7.515-7.728 6.642-13.08-.869-5.332-5.05-9.453-10.403-10.253l-30.953-4.631c-4.086-.607-7.914 2.21-8.526 6.308-.613 4.097 2.211 7.915 6.308 8.527l22.936 3.431-1.541.786c-.074.035-.147.07-.22.107-.494.252-188.726 96.27-188.835 96.326l60.547-116.676 75.156 11.245c4.083.607 7.913-2.21 8.526-6.308.613-4.097-2.211-7.915-6.308-8.527l-76.937-11.511c-5.265-.792-10.463 1.861-12.92 6.592l-65.112 125.469c-2.493 4.804-1.61 10.607 2.196 14.44 3.812 3.839 9.631 4.777 14.486 2.301l2.263-1.154 42.726 83.751c-1.051.82-2.1 1.667-3.147 2.544-8.621 7.229-16.283 16.589-23.426 28.618-2.114 3.562-.941 8.163 2.62 10.278 3.563 2.116 8.163.943 10.278-2.62 6.265-10.551 12.86-18.657 20.165-24.782 21.521-18.046 44.528-21.83 68.887-25.834 21.277-3.499 43.28-7.117 66.387-19.936 28.099-15.589 44.24-44.619 53.751-75.477 4.945-13.433 17.58-22.328 32.026-22.328h29.218v354.999h-455.7c.649-11.049 4.077-32.897 20.237-48.52 23.02-22.255 41.318-24.131 62.506-26.303 11.731-1.203 23.861-2.447 37.522-7.115 22.663-7.744 33.727-34.563 45.438-62.956 1.815-4.4 3.692-8.95 5.613-13.43 1.632-3.807-.131-8.216-3.938-9.849-3.811-1.636-8.216.132-9.849 3.937-1.961 4.576-3.858 9.174-5.692 13.621-10.381 25.165-20.186 48.934-36.422 54.482-12.043 4.115-23.309 5.27-34.202 6.387-21.952 2.25-44.651 4.578-71.402 30.441-20.244 19.572-24.199 46.18-24.843 59.332-14.594.647-26.268 12.722-26.268 27.473 0 15.164 12.336 27.5 27.5 27.5h389.512c4.143 0 7.5-3.358 7.5-7.5s-3.357-7.5-7.5-7.5h-389.512c-6.893 0-12.5-5.607-12.5-12.5s5.607-12.5 12.5-12.5h469.5v12.5c0 6.893-5.607 12.5-12.5 12.5h-35.751c-4.143 0-7.5 3.358-7.5 7.5s3.357 7.5 7.5 7.5h35.751c15.164 0 27.5-12.336 27.5-27.5v-389.999c0-4.142-3.357-7.5-7.5-7.5zm-191.314 117.94c-10.773 1.771-21.702 3.569-32.607 6.649l-22.98-45.055 40.088-20.445 17.943 35.177-2.538 1.295c-3.69 1.882-5.155 6.399-3.272 10.089 1.894 3.713 6.425 5.143 10.089 3.272l2.537-1.294 4.095 8.029c-4.482.824-8.935 1.556-13.355 2.283zm61.543-18.252c-11.068 6.14-22.097 9.979-33.007 12.722l-34.081-66.818c-1.882-3.69-6.4-5.155-10.088-3.273l-53.45 27.26c-1.772.904-3.112 2.474-3.727 4.366-.614 1.892-.451 3.951.452 5.723l25.414 49.827c-4.513 1.851-9.007 4.019-13.471 6.595l-41.892-82.117c7.096-3.619 161.383-82.322 173.71-88.61l35.903 70.386c-6.736 21.52-20.101 49.701-45.763 63.939z"/><path d="m175.539 411.156c0 15.715 12.785 28.5 28.5 28.5s28.5-12.785 28.5-28.5-12.785-28.5-28.5-28.5-28.5 12.785-28.5 28.5zm42 0c0 7.444-6.056 13.5-13.5 13.5s-13.5-6.056-13.5-13.5 6.056-13.5 13.5-13.5 13.5 6.056 13.5 13.5z"/><path d="m364.092 279.72c0-12.958-10.542-23.5-23.5-23.5s-23.5 10.542-23.5 23.5 10.542 23.5 23.5 23.5 23.5-10.542 23.5-23.5zm-32 0c0-4.687 3.813-8.5 8.5-8.5s8.5 3.813 8.5 8.5-3.813 8.5-8.5 8.5-8.5-3.813-8.5-8.5z"/><path d="m475.249 372.102c0-14.612-11.888-26.5-26.5-26.5s-26.5 11.888-26.5 26.5 11.888 26.5 26.5 26.5 26.5-11.888 26.5-26.5zm-38 0c0-6.341 5.159-11.5 11.5-11.5s11.5 5.159 11.5 11.5-5.159 11.5-11.5 11.5-11.5-5.159-11.5-11.5z"/></svg>