<?xml version="1.0" encoding="iso-8859-1"?>
<!-- Generator: Adobe Illustrator 19.0.0, SVG Export Plug-In . SVG Version: 6.00 Build 0)  -->
<svg version="1.1" id="Capa_1" xmlns="http://www.w3.org/2000/svg" xmlns:xlink="http://www.w3.org/1999/xlink" x="0px" y="0px"
	 viewBox="0 0 496 496" style="enable-background:new 0 0 496 496;" xml:space="preserve">
<g>
	<g>
		<g>
			<path d="M52.368,206.64C49.52,220.184,48,234.048,48,248c0,8.328,0.52,16.728,1.544,24.984l15.872-1.968
				C64.48,263.408,64,255.664,64,248c0-11.264,1.056-22.48,3.072-33.48C80.84,220.584,96.024,224,112,224c61.76,0,112-50.24,112-112
				S173.76,0,112,0S0,50.24,0,112C0,151.832,20.96,186.776,52.368,206.64z M112,16c41.704,0,77.176,26.776,90.4,64H128
				c-8.824,0-16-7.176-16-16s7.176-16,16-16c8.824,0,16,7.176,16,16h16c0-17.648-14.352-32-32-32S96,46.352,96,64s14.352,32,32,32
				h78.552c0.88,5.216,1.448,10.536,1.448,16c0,2.704-0.184,5.352-0.408,8H160v16h44.84c-3.024,11.68-8.16,22.48-15.024,32H120
				c-8.824,0-16-7.176-16-16c0-8.824,7.176-16,16-16c8.824,0,16,7.176,16,16h16c0-17.648-14.352-32-32-32s-32,14.352-32,32
				s14.352,32,32,32h55.288c-16.92,14.888-39.032,24-63.288,24c-52.936,0-96-43.064-96-96C16,59.064,59.064,16,112,16z"/>
			<path d="M443.632,289.36C446.48,275.816,448,261.952,448,248c0-8.328-0.52-16.728-1.544-24.984l-15.872,1.968
				C431.52,232.592,432,240.336,432,248c0,11.264-1.056,22.48-3.072,33.48C415.16,275.416,399.976,272,384,272
				c-61.76,0-112,50.24-112,112s50.24,112,112,112s112-50.24,112-112C496,344.168,475.04,309.224,443.632,289.36z M384,480
				c-35.44,0-66.384-19.352-83.008-48h166.024C450.384,460.648,419.44,480,384,480z M324.944,416l32-64h23.744l16,16h22.368l24,48
				H324.944z M474.4,416h-13.456l-32-64h-25.632l-16-16h-40.256l-40,80H293.6c-3.56-10.024-5.6-20.768-5.6-32
				c0-52.936,43.064-96,96-96c52.936,0,96,43.064,96,96C480,395.232,477.96,405.976,474.4,416z"/>
			<path d="M281.416,67.192C275.392,80.928,272,96.064,272,112c0,61.76,50.24,112,112,112s112-50.24,112-112S445.76,0,384,0
				c-39.888,0-74.872,21.024-94.72,52.504c-21.704-4.544-44.328-5.696-66.272-2.96l1.984,15.872
				C243.616,63.104,262.84,63.8,281.416,67.192z M384,208c-23.592,0-45.192-8.592-61.928-22.76l34.16-34.152
				c5.776,4.112,12.496,6.96,19.768,8.192V192h16v-32.72c7.272-1.232,13.992-4.08,19.768-8.192l34.16,34.152
				C429.192,199.408,407.592,208,384,208z M352,112c0-17.648,14.352-32,32-32s32,14.352,32,32s-14.352,32-32,32S352,129.648,352,112
				z M480,112c0,23.592-8.592,45.192-22.76,61.928l-34.16-34.152c4.12-5.784,6.968-12.504,8.2-19.776H464v-16h-32.72
				c-1.232-7.272-4.08-13.992-8.2-19.768l34.16-34.152C471.408,66.808,480,88.408,480,112z M384,16
				c23.592,0,45.192,8.592,61.928,22.76l-34.16,34.152c-5.776-4.112-12.496-6.96-19.768-8.192V32h-16v32.72
				c-7.272,1.232-13.992,4.08-19.768,8.192l-34.16-34.152C338.808,24.592,360.408,16,384,16z M310.76,50.072l34.16,34.152
				c-4.12,5.784-6.968,12.504-8.2,19.776H304v16h32.72c1.232,7.272,4.08,13.992,8.2,19.768l-34.16,34.152
				C296.592,157.192,288,135.592,288,112S296.592,66.808,310.76,50.072z"/>
			<path d="M214.584,428.8C220.608,415.072,224,399.936,224,384c0-61.76-50.24-112-112-112S0,322.24,0,384s50.24,112,112,112
				c39.832,0,74.776-20.96,94.64-52.376C220.192,446.48,234.048,448,248,448c8.36,0,16.768-0.52,24.992-1.544l-1.984-15.872
				C252.384,432.896,233.168,432.2,214.584,428.8z M112,480c-52.936,0-96-43.064-96-96c0-52.936,43.064-96,96-96
				c52.936,0,96,43.064,96,96C208,436.936,164.936,480,112,480z"/>
			<path d="M80,136v-16H64c-8.824,0-16-7.176-16-16s7.176-16,16-16c8.824,0,16,7.176,16,16h16c0-17.648-14.352-32-32-32
				s-32,14.352-32,32s14.352,32,32,32H80z"/>
			<path d="M130.736,331.576C127.16,324.44,119.984,320,112,320s-15.16,4.44-18.736,11.576l-24.32,48.648
				C65.712,386.696,64,393.936,64,401.168C64,426.992,85.008,448,110.832,448h2.328c25.832,0,46.84-21.008,46.84-46.832
				c0-7.232-1.712-14.472-4.944-20.944L130.736,331.576z M113.168,432h-2.328C93.832,432,80,418.168,80,401.168
				c0-4.76,1.128-9.528,3.256-13.792l24.32-48.648c1.688-3.376,7.16-3.376,8.84,0l24.32,48.648
				c2.136,4.264,3.264,9.032,3.264,13.792C144,418.168,130.168,432,113.168,432z"/>
			<rect x="360" y="368" width="16" height="16"/>
			<rect x="392" y="392" width="16" height="16"/>
		</g>
	</g>
</g>
<g>
</g>
<g>
</g>
<g>
</g>
<g>
</g>
<g>
</g>
<g>
</g>
<g>
</g>
<g>
</g>
<g>
</g>
<g>
</g>
<g>
</g>
<g>
</g>
<g>
</g>
<g>
</g>
<g>
</g>
</svg>
