<svg height="512" viewBox="0 0 512 512" width="512" xmlns="http://www.w3.org/2000/svg"><path d="m437.789 310.311a173.374 173.374 0 0 0 18.211-77.144v-.446a32.714 32.714 0 0 0 -40.213-31.85 149.327 149.327 0 0 0 4.848-38.061c-.1-21.617-5.116-40.577-14.513-54.83-10.727-16.272-26.717-25.7-46.529-27.6a72.1 72.1 0 0 0 -71.593-64.38h-168a8 8 0 0 0 -8 8 89.026 89.026 0 0 0 21.534 58.037c.558.648 1.139 1.273 1.715 1.9-13.3 4.835-24.17 14.01-31.9 27.123-13.642 23.151-16.481 57.8-8.309 89.556a33.088 33.088 0 0 0 -6.323-.62 32.759 32.759 0 0 0 -32.717 32.725v.446a173.374 173.374 0 0 0 18.211 77.144 31.826 31.826 0 0 0 28.622 17.689h1.167a31.626 31.626 0 0 0 13.342-2.937 333.664 333.664 0 0 0 7.769 33.466 339.4 339.4 0 0 0 38.423 86.188 108.975 108.975 0 0 0 184.93 0 336.035 336.035 0 0 0 46.187-119.66 31.641 31.641 0 0 0 13.349 2.943h1.167a31.826 31.826 0 0 0 28.622-17.689zm-94.843 29.658 7.035-12.311c6.419 13.96 10.019 28.059 10.019 40.342 0 44.112-46.654 80-104 80s-104-35.888-104-80c0-12.283 3.6-26.382 10.019-40.342l7.035 12.311 13.892-7.938-11.939-20.893c18.836-29.8 49.893-55.138 84.993-55.138s66.157 25.338 84.993 55.138l-11.939 20.893zm-1.646-55.369c-24.366-28.76-54.66-44.6-85.3-44.6s-60.934 15.84-85.3 44.6c-3.016 3.559-5.864 7.255-8.543 11.046l-34.157-59.77v-43.876a127.2 127.2 0 0 1 22.064-71.834 125 125 0 0 1 12.69-15.8 89.967 89.967 0 0 0 24.914 7.762c16.324 2.562 36.733 3.852 56.561 3.852 18.6 0 36.7-1.136 50.419-3.423 25.043-4.174 40.938-8.982 50.328-12.564.5.481 1 .978 1.527 1.5a129.017 129.017 0 0 1 37.497 90.507v43.876l-34.157 59.774c-2.679-3.791-5.527-7.487-8.543-11.05zm51.464-167.817c11.276 17.1 16.391 49.009 7.236 81.527v-6.31a142.338 142.338 0 0 0 -26.582-83.25 144 144 0 0 0 -9.053-11.5 43.985 43.985 0 0 1 28.399 19.537zm-264.335-84.783h159.571a56.077 56.077 0 0 1 55.793 51.16c-6.7 2.953-22.478 8.733-51.775 13.615-26.469 4.412-72.167 4.209-101.869-.453a73.009 73.009 0 0 1 -61.72-64.322zm-11.292 87.187c7.163-12.159 17.471-19.587 30.663-22.176a141.007 141.007 0 0 0 -10.978 14.17 143.124 143.124 0 0 0 -24.822 80.819v9.831c-8.765-28.931-7.007-62.031 5.137-82.644zm-14.304 192.813a15.912 15.912 0 0 1 -14.311-8.845 157.29 157.29 0 0 1 -16.522-69.988v-.446a16.722 16.722 0 0 1 31.678-7.478l8.322 16.645v23.152a338.37 338.37 0 0 0 2.718 42.709 15.69 15.69 0 0 1 -10.718 4.251zm25.194-43.828 24.5 42.87a140.546 140.546 0 0 0 -13.989 35.918 312.774 312.774 0 0 1 -7.491-37.742 321.556 321.556 0 0 1 -3.02-41.046zm173.054 200.191a93.057 93.057 0 0 1 -118.64-24.45c20.945 13.019 46.592 20.087 73.559 20.087s52.613-7.067 73.558-20.087a93.077 93.077 0 0 1 -28.477 24.45zm72.379-121.425a140.544 140.544 0 0 0 -13.984-35.9l24.5-42.87a321.784 321.784 0 0 1 -3.019 41.061 323.259 323.259 0 0 1 -7.497 37.709zm35.707-34.938h-1.167a15.69 15.69 0 0 1 -10.718-4.251 338.378 338.378 0 0 0 2.718-42.709v-23.152l8.322-16.644a16.722 16.722 0 0 1 31.678 7.477v.446a157.29 157.29 0 0 1 -16.522 69.988 15.912 15.912 0 0 1 -14.311 8.845z"/><path d="m298.343 309.657 11.314-11.314c-35.1-35.1-72.211-35.1-107.314 0l11.314 11.314c28.888-28.888 55.798-28.888 84.686 0z"/><path d="m200 320h112v16h-112z"/><path d="m176 352h160v16h-160z"/><path d="m184 384h144v16h-144z"/><path d="m224 416h64v16h-64z"/><path d="m147.073 216.75 9.854 12.606a65.58 65.58 0 0 1 20.135-11.038 16 16 0 1 0 29.876 0 65.58 65.58 0 0 1 20.135 11.038l9.854-12.606c-28.552-22.316-61.302-22.316-89.854 0z"/><path d="m267.073 217.047 9.854 12.606a65.58 65.58 0 0 1 20.135-11.038 16 16 0 1 0 29.877 0 65.587 65.587 0 0 1 20.134 11.038l9.854-12.606c-28.552-22.318-61.302-22.318-89.854 0z"/><path d="m148.422 168.845 7.156 14.31a69.012 69.012 0 0 1 58.155-1.709l23.116 9.907 6.3-14.706-23.115-9.907a84.98 84.98 0 0 0 -71.612 2.105z"/><path d="m298.267 181.59a69.016 69.016 0 0 1 58.155 1.709l7.156-14.31a84.976 84.976 0 0 0 -71.614-2.105l-23.115 9.907 6.3 14.706z"/></svg>