<svg xmlns="http://www.w3.org/2000/svg" viewBox="0 0 368.49 433"><defs><style>.cls-1{fill:#ed6b25;}</style></defs><title>Zasób 1</title><g id="Warstwa_2" data-name="Warstwa 2"><g id="Warstwa_1-2" data-name="Warstwa 1"><path class="cls-1" d="M172.8,433c-44.39-.67-85.5-17.28-119.79-50.37A171.18,171.18,0,0,1,3.18,292.4,153.29,153.29,0,0,1,.63,247.34c.1-1.13-.14-2.62,1.6-2.63s1.58,1.45,1.81,2.59c5.74,29.47,16.49,56.86,34.4,81.12,27.46,37.18,63.87,60.91,108.86,71.43A172.48,172.48,0,0,0,210.71,403a158.65,158.65,0,0,0,78.06-33.24c32.19-25.53,53.61-58.23,62.17-98.52,12-56.54-1.22-107.18-37.74-151.82a146.34,146.34,0,0,0-13.65-14.5c-1-.89-2.59-1.83-1.33-3.31s2.46,0,3.43.85c29.26,24.14,49.84,54.25,59.51,90.92,18.27,69.28,2.39,130.4-47.09,182.12-29.44,30.77-66.28,48.12-108.16,55.06C196,432.19,186,432.84,172.8,433Z"/><path class="cls-1" d="M310.21,9.41c-.27.42-.55.88-.84,1.34q-13.95,21.51-27.87,43c-.84,1.29-1.44,1.76-2.93.72-3.65-2.56-7.39-5-11.18-7.32-1.33-.82-1.46-1.45-.6-2.75Q280.86,22.85,294.85,1.2c.65-1,1.12-1.7,2.5-.76,3.9,2.67,7.9,5.19,11.85,7.79C309.61,8.5,310.25,8.63,310.21,9.41Z"/><path class="cls-1" d="M221.93,144.27c-.39-.23-.87-.48-1.33-.78-3.73-2.44-7.42-4.93-11.19-7.29-1.3-.81-1.45-1.43-.6-2.74q14.09-21.56,28.06-43.2c.79-1.22,1.39-1.6,2.75-.66,3.74,2.58,7.55,5.06,11.39,7.48,1.19.75,1.35,1.31.56,2.53Q237.41,121.29,223.35,143C223,143.53,222.82,144.22,221.93,144.27Z"/><path class="cls-1" d="M238,75.4A33.35,33.35,0,0,0,253.7,51.47L274,64.77c1.82,1.2,3.6,2.48,5.49,3.55,1.5.85,1.63,1.68.53,2.93-.48.54-.74,1.26-1.22,1.8-1.25,1.4-.89,2.41.72,3.06,2.45,1,2.1,2.26.79,4.08-2.22,3.1-4.27,6.32-6.27,9.57-.79,1.29-1.49,1.68-2.67.58-1.88-1.75-3.37-1.7-4.4.89-.86,2.15-2,2-3.8.75C255,86.43,246.64,81.08,238,75.4Z"/><path class="cls-1" d="M249.9,49.36a25.52,25.52,0,0,1-30.14,25c-1.77-.32-2.15-.73-1.07-2.32,3.35-5,6.58-10,9.91-15,.75-1.12,1.28-2.14.72-3.51-.65-1.6-.21-2.65,1.68-2.71a3.59,3.59,0,0,0,3-2c2.9-4.5,5.94-8.91,8.75-13.47,1.31-2.12,2-1.77,3.15.07A25.89,25.89,0,0,1,249.9,49.36Z"/><path class="cls-1" d="M108.2,201.24c5.15,3,6.58,7.51,3.68,11.48a8.89,8.89,0,0,1-7.1,3.51c-5.36.23-10.73.12-16.09.2-1.17,0-1.58-.4-1.58-1.58q.05-13,0-25.92c0-1.18.38-1.59,1.56-1.57,5.09.06,10.2-.15,15.28.11,5.88.3,9,4.38,7.73,9.37C111.16,198.82,109.6,199.94,108.2,201.24Zm-9,8.54v0a27,27,0,0,0,3.27,0c1.33-.16,2.52-.72,2.61-2.29s-1-2.46-2.51-2.63-3.08-.1-4.61-.28c-2.05-.24-2.85.35-2.79,2.62.06,2,.45,3.07,2.67,2.67A7.74,7.74,0,0,1,99.17,209.78Zm-.92-11a30.58,30.58,0,0,0,3.16,0c1.39-.16,2.51-.89,2.5-2.38s-1.16-2.2-2.53-2.36c-1.16-.13-2.37,0-3.52-.12-2.14-.3-2.59.53-2.71,2.63C95,199.84,97.18,198.61,98.25,198.78Z"/><path class="cls-1" d="M140.31,315.49c-2.65.77-4.54-.42-5.17-3.62-.25-1.28-1-1.68-2.34-1.63-2.54.11-5.09.11-7.63,0-1.34-.06-2.09.43-2.32,1.68-.57,3.09-2.41,3.83-5.42,3.64-4.59-.29-4.61-.08-2.8-4.34,3.17-7.52,6.43-15,9.46-22.57.78-2,1.76-2.52,3.78-2.46,5.19.14,5.19,0,7.16,4.73q4.54,10.78,9.08,21.55c1.27,3,1.26,3-1.92,3ZM129,296.09c-.69,1.72-1.19,2.78-1.55,3.89s-1.72,2.69-1,3.45c1,1,2.89.29,4.4.38.9.05,1.08-.43.76-1.2C130.84,300.63,130,298.66,129,296.09Z"/><path class="cls-1" d="M122.7,216.41l10.53-25a2.49,2.49,0,0,1,.12-.24c.73-1.32.65-3.54,2.13-3.89,2.15-.5,4.51-.19,6.78-.13.91,0,1,.93,1.28,1.58,3.64,8.59,7.23,17.21,10.92,25.77.76,1.76.14,2.05-1.41,1.94a10.83,10.83,0,0,0-2.45,0c-3,.48-5.07-.41-5.61-3.68-.22-1.35-1.13-1.67-2.39-1.61a24.48,24.48,0,0,1-4.36,0c-3.33-.43-5.86.18-6.49,4-.15.92-.81,1.28-1.79,1.26C127.7,216.37,125.44,216.41,122.7,216.41Zm16.12-19.23c-.52,1.25-.83,2-1.13,2.75-2.16,5.43-2.16,5.43,4.06,4.72A39.11,39.11,0,0,0,138.82,197.18Z"/><path class="cls-1" d="M167.84,265.94c4.06-9.63,8-18.88,11.85-28.15a1.81,1.81,0,0,1,1.86-1.2c6.3-.48,6.28-.49,8.69,5.26,3,7.28,6.08,14.56,9.24,21.78.88,2,.43,2.56-1.62,2.32a8.89,8.89,0,0,0-2.45,0c-2.87.47-4.68-.5-5.19-3.5-.26-1.56-1.31-2-2.79-1.82a18,18,0,0,1-3.81,0c-3.35-.41-6.1,0-6.71,4.07-.17,1.1-1,1.28-2,1.25C172.68,265.9,170.5,265.94,167.84,265.94ZM181,254.25h6.14L184,246.56c-1,2.42-1.74,4.33-2.51,6.25C181.33,253.21,181.2,253.63,181,254.25Z"/><path class="cls-1" d="M238.58,285.92c4,.1,7.51.78,10.7,2.8,1.14.72,1.56,1.43.54,2.53a3.89,3.89,0,0,0-.32.44c-2.47,3.55-2.48,3.57-6.43,2a11.17,11.17,0,0,0-5-.88c-1.08.08-2,.47-2.18,1.65s.72,1.6,1.61,1.93c3.06,1.14,6.39,1.39,9.35,2.88,2.71,1.36,4.51,3.3,4.69,6.47a8.6,8.6,0,0,1-4.06,8.37,12.93,12.93,0,0,1-6.48,1.84,20.9,20.9,0,0,1-13.41-3.63c-1.1-.77-1.5-1.41-.37-2.52s1.94-2.94,3.29-3.55,2.57,1.24,4,1.76a14.21,14.21,0,0,0,6.38,1.16c1.13-.11,2.23-.43,2.43-1.76s-.9-1.72-1.82-2c-2.08-.65-4.21-1.13-6.29-1.75-5.75-1.71-8.05-4.59-7.58-9.39.44-4.43,3.88-7.48,9.18-8.14C237.43,286,238.16,286,238.58,285.92Z"/><path class="cls-1" d="M146.4,236.44a18.59,18.59,0,0,1,9.88,2.58c1.31.78,2,1.52.68,2.85a1.45,1.45,0,0,0-.15.23c-2.44,3.59-2.44,3.58-6.47,2a11.33,11.33,0,0,0-4.51-.93c-1.19,0-2.51.17-2.69,1.71s1,1.77,2.06,2.12c2.84.93,5.86,1.26,8.6,2.56,3.15,1.49,5,3.7,4.92,7.41-.12,4.18-2,7.15-6,8.47-6.39,2.11-12.35.91-17.93-2.7-1.11-.72-1.56-1.34-.39-2.48s1.91-2.92,3.26-3.6,2.52,1.24,3.93,1.73a14.42,14.42,0,0,0,5.56,1.13c1.33-.07,3,.21,3.25-1.64s-1.28-2-2.49-2.33c-1.65-.49-3.33-.9-5-1.38-6.39-1.83-8.74-4.68-8.08-9.74.63-4.79,4.58-7.83,10.43-8C145.68,236.43,146,236.44,146.4,236.44Z"/><path class="cls-1" d="M156.33,301.07c0-4.09.07-8.18,0-12.27,0-1.72.35-2.42,2.23-2.35,3.72.14,7.46,0,11.18.06,7,.17,11.16,4.15,11,10.42-.09,5.42-3.56,9.22-9.21,10a13.21,13.21,0,0,1-3.79.28c-3.09-.47-3.55,1-3.44,3.66.19,4.58,0,4.38-4.54,4.65-2.93.17-3.7-.79-3.51-3.59C156.51,308.35,156.33,304.71,156.33,301.07Zm8-3.88c.38,1.37-1.25,4,2.48,3.79,3.94-.24,6-1.45,6-4.07-.07-2.43-1.93-3.3-5.69-3.66C163.54,292.92,164.34,295.1,164.29,297.19Z"/><path class="cls-1" d="M192.38,301c0-4.18.06-8.36,0-12.54,0-1.54.43-2.06,2-2,3.91.1,7.82-.09,11.72.06,7.64.3,11.87,5.46,10.5,12.62-.8,4.18-4.21,7.16-9,7.84-1.08.15-2.17.25-3.25.31-3.87.2-3.82.19-3.91,4.21,0,1.29.76,3.33-.57,3.73a14.21,14.21,0,0,1-7,0c-.81-.17-.42-1.28-.43-2C192.36,309.21,192.38,305.12,192.38,301Zm8-3.79c.4,1.28-1.32,4,2.43,3.74,3.94-.23,6.06-1.45,6-4.06-.07-2.45-1.91-3.32-5.67-3.67C199.65,292.93,200.34,295,200.37,297.24Z"/><path class="cls-1" d="M267.2,217c-7.09,0-12.88-4.24-14.64-10.79a15.16,15.16,0,0,1,6.68-17.26c6-3.52,14-2.65,18.74,1.91,1.36,1.32,1.92,2.37-.12,3.48a5.26,5.26,0,0,0-1.08.83c-1.8,1.71-3.27,2.7-5.72.38s-6.62-1.55-8.8,1a8.52,8.52,0,0,0,.29,11,7,7,0,0,0,9.19.46c.78-.61,1.27-2.23,2.53-1.51a36.79,36.79,0,0,1,5.25,3.85c.47.4-.31.92-.62,1.3A14.17,14.17,0,0,1,267.2,217Z"/><path class="cls-1" d="M218.86,237c3.55,0,7.1.06,10.65,0,1.4,0,1.85.36,1.88,1.82.14,5.31.2,5.48-5.23,5.24-2.77-.12-3.54.63-3.42,3.41.24,5.45,0,10.92.1,16.38,0,1.64-.43,2.17-2.14,2.18-6.14.06-6.14.13-6.14-6.06,0-4.37-.15-8.74.06-13.1.11-2.38-.73-3.11-2.91-2.74a3.31,3.31,0,0,1-.55,0c-5.43,0-5.35,0-5.18-5.37.05-1.53.62-1.79,1.94-1.76C211.58,237,215.22,237,218.86,237Z"/><path class="cls-1" d="M206.76,187.37c3.64,0,7.28.06,10.91,0,1.46,0,2,.29,2.07,1.92.08,5.21.15,5.21-5,5.21-3.76,0-3.76,0-3.76,3.68,0,5.37-.06,10.73,0,16.1,0,1.61-.33,2.19-2.08,2.22-6.15.07-6.15.15-6.15-6,0-4.64-.08-9.28,0-13.91,0-1.72-.5-2.3-2.15-2.1a23,23,0,0,1-2.73,0c-3.81,0-3.64,0-3.87-3.88-.15-2.54.41-3.54,3.17-3.29C200.38,187.59,203.58,187.37,206.76,187.37Z"/><path class="cls-1" d="M166.16,201.9c0-4.18.06-8.36,0-12.54,0-1.48.31-2,1.92-2,6.31-.11,6.31-.18,6.31,6.1,0,4.45.13,8.91-.06,13.35-.09,2.14.63,2.59,2.59,2.49,3.08-.16,6.18,0,9.26-.07,1.42,0,2.05.22,2.08,1.88.08,5.34.16,5.34-5.16,5.34-4.91,0-9.81-.08-14.72,0-1.82,0-2.3-.54-2.25-2.29C166.24,210.08,166.16,206,166.16,201.9Z"/><path class="cls-1" d="M239.54,202c0,4.18-.05,8.36,0,12.53,0,1.4-.37,1.83-1.82,1.88-6.41.21-6.41.26-6.41-6,0-7,.06-14,0-21,0-1.7.47-2.12,2.14-2.13,6.1,0,6.1-.11,6.1,6Q239.54,197.68,239.54,202Z"/></g></g></svg>