<svg xmlns="http://www.w3.org/2000/svg" viewBox="0 0 115.56 119.09"><defs><style>.cls-1{fill:#003571;fill-rule:evenodd;}</style></defs><title>pk</title><g id="Warstwa_2" data-name="Warstwa 2"><g id="Warstwa_1-2" data-name="Warstwa 1"><path class="cls-1" d="M115.56,21.67a48.48,48.48,0,0,0-14.83,8.78V0h14.76l.07,21.67Zm-14.83,97.42h14.76V25.27a31.7,31.7,0,0,0-14.76,9.65v5a15.53,15.53,0,0,1,1-1.3,32,32,0,0,1,10.58-8.78V73.8l-11.59-.07V76.9h11.59v39H100.73v3.17Zm0-4.75V102.89l10.08,11.45Zm0-22.9v-13h10.08Zm0-61-.94.94C93.24,37.87,89.42,46.51,86.54,55.8c-.72-2.09-1.37-4.18-2.23-6.26V13.68h8.5V0h7.92V30.46Zm0,4.46C93.53,43,89.06,55.22,86.62,70.56c-.65-3.74-1.37-7.34-2.3-10.73V76.9h16.42V73.73H89.14C90.65,65,92.52,56.3,96,48.31A47.55,47.55,0,0,1,100.73,40v-5Zm0,43.56v13L96,97.56l4.68,5.33v11.45H91.8l-7.49-8.42V87.34l7-8.86Zm0,37.44v3.17H84.31v-3.17ZM84.31,49.54v-.07a50.1,50.1,0,0,0-7.34-13,39.75,39.75,0,0,0-3.24-3.67V13.68H84.31V49.54Zm0,10.3C81.94,50.62,78.41,43,73.73,37.22v5.4a54.88,54.88,0,0,1,5,10.08h-5v3.17h6.12c.14.43.29.94.43,1.37A141.77,141.77,0,0,1,84.1,73.8H73.73v3.1H84.31V59.83Zm0,27.5v18.58L77,97.49h0v16.85H73.73V78.48H77V96.77h0l7.34-9.43Zm0,28.58v3.17H73.73v-3.17ZM73.73,32.76a41.62,41.62,0,0,0-11.3-7.85V0h7.63V13.68h3.67V32.76Zm0,4.46a33.51,33.51,0,0,0-11.3-9.07v3.6a34.32,34.32,0,0,1,3.17,2V52.7H62.42v3.17h3.17V63.5l1.58,1.8,1.58-1.8V55.87h5V52.7h-5V36.43a37.57,37.57,0,0,1,5,6.19v-5.4Zm0,36.58v3.1H62.42V73.8Zm0,4.68v35.86H62.42V78.48Zm0,37.44v3.17H62.42v-3.17Zm-11.3-91A39.51,39.51,0,0,0,57.74,23V0h4.68V24.91Zm0,3.24v3.6c-1-.58-2.09-1.08-3.17-1.58V52.7h3.17v3.17H59.26v7.34l-1.51,2V26.35a30,30,0,0,1,4.68,1.8Zm0,45.65v3.1H57.74V73.8Zm0,4.68v35.86H57.89V78.48Zm0,37.44v3.17H57.74v-3.17ZM57.74,23a.07.07,0,0,0-.07-.07c-1.58.65-3.17,1.3-4.68,2V0h4.75V23Zm0,3.38V65.23l-.07.07-1.51-2.09V55.87H53V52.7h3.17V30.17A25.44,25.44,0,0,0,53,31.68V28.15a36.89,36.89,0,0,1,4.68-1.8Zm0,47.45v3.1H53V73.8Zm0,42.12v3.17H53v-3.17ZM53,99.07V84.31a10.74,10.74,0,0,1,2.88,7.49A10.35,10.35,0,0,1,53,99.07Zm0-74.16a41,41,0,0,0-11.23,7.78v-19h3.6V0H53V24.91Zm0,3.24a32.42,32.42,0,0,0-11.23,9.07v5.4l1.3-1.94a50.17,50.17,0,0,1,3.67-4.25V52.7h-5v3.17h5v7.56l1.51,1.87,1.58-1.87V55.87H53V52.7H49.82V33.77A21.94,21.94,0,0,1,53,31.68V28.15ZM53,73.8v3.1H41.76V73.8Zm0,10.51V99.07c-2.66,2.81-6.84,4.54-11.23,5.4V79.06c5.11.86,8.93,2.74,11.23,5.26Zm0,31.61v3.17H41.76v-3.17ZM41.76,32.69a33.81,33.81,0,0,0-3.38,3.82,51.84,51.84,0,0,0-7.27,13,1,1,0,0,1-.14.43V13.68h10.8v19Zm0,4.54C36.94,43.13,33.41,51,31,60.55V76.9h10.8V73.8H31.54L32.33,69a102.64,102.64,0,0,1,3.31-13.1h6.12V52.7h-5a52.7,52.7,0,0,1,5-10.08v-5.4Zm0,41.83v25.42a42.85,42.85,0,0,1-7.34.65H31v-6c3.67-1.58,6.19-4.39,6.41-7.56.43-5.4-2.38-8.35-6.41-9.65V78.48h3.46a38.92,38.92,0,0,1,7.34.58Zm0,36.86v3.17H31v-3.17ZM31,49.9c-.72,1.87-1.37,4-2,5.9a83.24,83.24,0,0,0-4-10.51,47.76,47.76,0,0,0-9.43-14c-.29-.22-.5-.5-.79-.72V0h7.92V13.68H31V49.9Zm0,10.66c-.79,3.17-1.51,6.55-2.09,10.08C26.42,55.22,22,43,14.76,34.92V40c4,5.62,6.48,12,8.35,18.72a151.11,151.11,0,0,1,3.24,15H14.76v3.1H31V60.55Zm0,17.93v3.38a20.29,20.29,0,0,0-6.41-.94v19.44A15.45,15.45,0,0,0,31,99.07v6H24.55v9.22H14.76V78.48Zm0,37.44v3.17H14.76v-3.17ZM14.76,30.6A46.08,46.08,0,0,0,0,21.74V0H14.76V30.6Zm0,4.32A31.71,31.71,0,0,0,0,25.27v93.82H14.76v-3.17H3.17v-39H14.76V73.8H3.17V29.88a31,31,0,0,1,9.65,7.63A29.65,29.65,0,0,1,14.76,40V34.92Zm0,43.56v35.86h-10V78.48Z"/></g></g></svg>