<?xml version="1.0" encoding="utf-8"?>
<!-- Generator: Adobe Illustrator 22.1.0, SVG Export Plug-In . SVG Version: 6.00 Build 0)  -->
<svg version="1.1" xmlns="http://www.w3.org/2000/svg" xmlns:xlink="http://www.w3.org/1999/xlink" x="0px" y="0px"
	 viewBox="0 0 150 150" style="enable-background:new 0 0 150 150;" xml:space="preserve">
<style type="text/css">
	.st0{fill:#018E42;}
	.st1{display:none;}
	.st2{display:inline;}
	.st3{fill:#222831;}
</style>
<g id="Layer_2">
</g>
<g id="Layer_3">
</g>
<g id="Layer_4">
	<g>
		<path class="st0" d="M140.2,112H38.4c-0.7,0-1.3-0.6-1.3-1.3v-35c0-0.7,0.6-1.3,1.3-1.3h25.9c0.7,0,1.3,0.6,1.3,1.3
			c0,0.7-0.6,1.3-1.3,1.3H39.7v32.4h99.2V10.1H39.7v29.2c0,0.7-0.6,1.3-1.3,1.3c-0.7,0-1.3-0.6-1.3-1.3V8.8c0-0.7,0.6-1.3,1.3-1.3
			h101.8c0.7,0,1.3,0.6,1.3,1.3v101.9C141.5,111.5,140.9,112,140.2,112z"/>
		<path class="st0" d="M111.6,142.5H9.8c-0.7,0-1.3-0.6-1.3-1.3V39.3c0-0.7,0.6-1.3,1.3-1.3h101.8c0.7,0,1.3,0.6,1.3,1.3v101.9
			C112.9,141.9,112.3,142.5,111.6,142.5z M11.1,139.9h99.2V40.6H11.1V139.9z"/>
		<path class="st0" d="M76.6,81c-2.9,0-5.2-2.4-5.2-5.2c0-2.9,2.3-5.2,5.2-5.2c2.9,0,5.2,2.4,5.2,5.2C81.8,78.6,79.5,81,76.6,81z
			 M76.6,73.1c-1.5,0-2.6,1.2-2.6,2.7c0,1.5,1.2,2.7,2.6,2.7c1.5,0,2.7-1.2,2.7-2.7C79.3,74.3,78.1,73.1,76.6,73.1z"/>
	</g>
</g>
<g id="Layer_5" class="st1">
	<g class="st2">
		<path class="st3" d="M-7.4,49.9V100h-4.9V76.6h-29.7V100H-47V49.9h4.9v22.3h29.7V49.9H-7.4z"/>
		<path class="st3" d="M38.9,95.7v4.4H5.2V49.9h33v4.4H10.1v18.1h24.6v4.2H10.1v19.1H38.9z"/>
		<path class="st3" d="M45.2,74.6c0-3,0.5-6,1.6-9c1.1-3,2.6-5.7,4.6-8c2-2.4,4.5-4.3,7.5-5.8c3-1.5,6.3-2.2,10.1-2.2
			c4.5,0,8.3,1,11.4,3c3.2,2,5.5,4.7,7.1,7.9l-4,2.4c-0.8-1.6-1.8-3-2.9-4.2c-1.1-1.1-2.4-2-3.7-2.8c-1.3-0.7-2.7-1.2-4.1-1.5
			c-1.4-0.3-2.8-0.5-4.2-0.5c-3,0-5.7,0.6-8,1.8c-2.3,1.2-4.2,2.8-5.8,4.8c-1.6,2-2.8,4.2-3.6,6.7c-0.8,2.5-1.2,5-1.2,7.5
			c0,2.8,0.5,5.4,1.4,8c1,2.5,2.3,4.8,4,6.7c1.7,2,3.6,3.5,5.9,4.7c2.3,1.2,4.8,1.7,7.4,1.7c1.4,0,2.9-0.2,4.3-0.5
			c1.5-0.4,2.9-0.9,4.3-1.7c1.4-0.8,2.7-1.7,3.8-2.9c1.2-1.2,2.2-2.6,3-4.2l4.1,2.1c-0.8,1.9-1.9,3.5-3.4,5
			c-1.5,1.4-3.1,2.6-4.9,3.6c-1.8,1-3.7,1.7-5.7,2.3c-2,0.5-4,0.8-5.9,0.8c-3.4,0-6.6-0.8-9.5-2.3c-2.9-1.5-5.3-3.5-7.4-5.9
			c-2.1-2.4-3.7-5.2-4.8-8.3C45.8,81,45.2,77.8,45.2,74.6z"/>
		<path class="st3" d="M97.1,100V50h4.9v29.1l27.6-29.2h5.4l-20.5,22l21.6,28.1h-5.4l-19.2-25.2l-9.5,9.8V100H97.1z"/>
		<path class="st3" d="M178,54.3h-17.9V100h-4.9V54.3h-17.9v-4.4H178V54.3z"/>
		<path class="st3" d="M175.4,100l21-50.1h4l21,50.1h-5.3l-6.5-15.7h-22.5l-6.4,15.7H175.4z M198.4,55.7l-10.3,24.8h20.3L198.4,55.7
			z"/>
		<path class="st3" d="M228.6,100V49.9h21.1c2.2,0,4.2,0.5,6,1.4c1.8,0.9,3.4,2.1,4.7,3.6c1.3,1.5,2.3,3.2,3.1,5
			c0.7,1.9,1.1,3.8,1.1,5.7c0,1.8-0.3,3.6-0.8,5.3c-0.5,1.7-1.3,3.2-2.3,4.5c-1,1.3-2.2,2.5-3.5,3.4c-1.4,0.9-2.9,1.5-4.6,1.9
			l12.4,19.3h-5.6l-11.9-18.5h-14.8V100H228.6z M233.5,77.2H250c1.5,0,2.8-0.3,4-1c1.2-0.6,2.2-1.5,3.1-2.6c0.8-1.1,1.5-2.3,2-3.7
			c0.5-1.4,0.7-2.8,0.7-4.3c0-1.5-0.3-3-0.8-4.3c-0.5-1.4-1.3-2.6-2.2-3.6c-0.9-1-2-1.9-3.2-2.5c-1.2-0.6-2.6-0.9-3.9-0.9h-16V77.2z
			"/>
		<path class="st3" d="M308.9,95.7v4.4h-33.7V49.9h33v4.4h-28.2v18.1h24.6v4.2h-24.6v19.1H308.9z"/>
	</g>
</g>
</svg>
