<?xml version="1.0" encoding="utf-8"?>
<!-- Generator: Adobe Illustrator 22.1.0, SVG Export Plug-In . SVG Version: 6.00 Build 0)  -->
<svg version="1.1" xmlns="http://www.w3.org/2000/svg" xmlns:xlink="http://www.w3.org/1999/xlink" x="0px" y="0px"
	 viewBox="0 0 476.4 134.4" style="enable-background:new 0 0 476.4 134.4;" xml:space="preserve">
<style type="text/css">
	.st0{fill:#018E42;}
</style>
<g id="Layer_2">
	<path class="st0" d="M100.6,94.3H26.2c-0.5,0-0.9-0.4-0.9-0.9V67.7c0-0.5,0.4-0.9,0.9-0.9h19c0.5,0,0.9,0.4,0.9,0.9
		c0,0.5-0.4,0.9-0.9,0.9h-18v23.7h72.6V19.7H27.1v21.3c0,0.5-0.4,0.9-0.9,0.9c-0.5,0-0.9-0.4-0.9-0.9V18.8c0-0.5,0.4-0.9,0.9-0.9
		h74.5c0.5,0,0.9,0.4,0.9,0.9v74.6C101.6,93.9,101.2,94.3,100.6,94.3z"/>
</g>
<g id="Layer_3">
	<path class="st0" d="M79.7,116.6H5.2c-0.5,0-0.9-0.4-0.9-0.9V41.1c0-0.5,0.4-0.9,0.9-0.9h74.5c0.5,0,0.9,0.4,0.9,0.9v74.6
		C80.7,116.2,80.2,116.6,79.7,116.6z M6.2,114.7h72.6V42H6.2V114.7z"/>
</g>
<g id="Layer_4">
	<path class="st0" d="M54.1,71.6c-2.1,0-3.8-1.7-3.8-3.8c0-2.1,1.7-3.8,3.8-3.8c2.1,0,3.8,1.7,3.8,3.8C58,69.8,56.2,71.6,54.1,71.6z
		 M54.1,65.8c-1.1,0-1.9,0.9-1.9,1.9c0,1.1,0.9,1.9,1.9,1.9c1.1,0,1.9-0.9,1.9-1.9C56.1,66.7,55.2,65.8,54.1,65.8z"/>
</g>
<g id="Layer_5">
	<g>
		<path class="st0" d="M155.8,42.1v50.1h-4.9V68.8h-29.7v23.4h-4.9V42.1h4.9v22.3h29.7V42.1H155.8z"/>
		<path class="st0" d="M202.1,87.9v4.4h-33.7V42.1h33v4.4h-28.2v18.1h24.6v4.2h-24.6v19.1H202.1z"/>
		<path class="st0" d="M208.4,66.8c0-3,0.5-6,1.6-9c1.1-3,2.6-5.7,4.6-8c2-2.4,4.5-4.3,7.5-5.8c3-1.5,6.3-2.2,10.1-2.2
			c4.5,0,8.3,1,11.4,3c3.2,2,5.5,4.7,7.1,7.9l-4,2.4c-0.8-1.6-1.8-3-2.9-4.2c-1.1-1.1-2.4-2-3.7-2.8c-1.3-0.7-2.7-1.2-4.1-1.5
			c-1.4-0.3-2.8-0.5-4.2-0.5c-3,0-5.7,0.6-8,1.8c-2.3,1.2-4.2,2.8-5.8,4.8c-1.6,2-2.8,4.2-3.6,6.7c-0.8,2.5-1.2,5-1.2,7.5
			c0,2.8,0.5,5.4,1.4,8c1,2.5,2.3,4.8,4,6.7c1.7,2,3.6,3.5,5.9,4.7c2.3,1.2,4.8,1.7,7.4,1.7c1.4,0,2.9-0.2,4.3-0.5
			c1.5-0.4,2.9-0.9,4.3-1.7c1.4-0.8,2.7-1.7,3.8-2.9c1.2-1.2,2.2-2.6,3-4.2l4.1,2.1c-0.8,1.9-1.9,3.5-3.4,5
			c-1.5,1.4-3.1,2.6-4.9,3.6c-1.8,1-3.7,1.7-5.7,2.3c-2,0.5-4,0.8-5.9,0.8c-3.4,0-6.6-0.8-9.5-2.3c-2.9-1.5-5.3-3.5-7.4-5.9
			c-2.1-2.4-3.7-5.2-4.8-8.3C209,73.2,208.4,70,208.4,66.8z"/>
		<path class="st0" d="M260.3,92.2V42.2h4.9v29.1l27.6-29.2h5.4l-20.5,22l21.6,28.1h-5.4L274.7,67l-9.5,9.8v15.4H260.3z"/>
		<path class="st0" d="M341.2,46.5h-17.9v45.7h-4.9V46.5h-17.9v-4.4h40.7V46.5z"/>
		<path class="st0" d="M338.6,92.2l21-50.1h4l21,50.1h-5.3l-6.5-15.7h-22.5l-6.4,15.7H338.6z M361.6,47.9l-10.3,24.8h20.3
			L361.6,47.9z"/>
		<path class="st0" d="M391.8,92.2V42.1h21.1c2.2,0,4.2,0.5,6,1.4c1.8,0.9,3.4,2.1,4.7,3.6c1.3,1.5,2.3,3.2,3.1,5
			c0.7,1.9,1.1,3.8,1.1,5.7c0,1.8-0.3,3.6-0.8,5.3c-0.5,1.7-1.3,3.2-2.3,4.5c-1,1.3-2.2,2.5-3.5,3.4c-1.4,0.9-2.9,1.5-4.6,1.9
			L429,92.2h-5.6l-11.9-18.5h-14.8v18.5H391.8z M396.7,69.4h16.4c1.5,0,2.8-0.3,4-1c1.2-0.6,2.2-1.5,3.1-2.6c0.8-1.1,1.5-2.3,2-3.7
			c0.5-1.4,0.7-2.8,0.7-4.3c0-1.5-0.3-3-0.8-4.3c-0.5-1.4-1.3-2.6-2.2-3.6c-0.9-1-2-1.9-3.2-2.5c-1.2-0.6-2.6-0.9-3.9-0.9h-16V69.4z
			"/>
		<path class="st0" d="M472.1,87.9v4.4h-33.7V42.1h33v4.4h-28.2v18.1h24.6v4.2h-24.6v19.1H472.1z"/>
	</g>
</g>
</svg>
