<svg xmlns="http://www.w3.org/2000/svg" viewBox="0 0 476 134" width="476" height="134" preserveAspectRatio="xMidYMid meet" style="width: 100%; height: 100%; transform: translate3d(0px, 0px, 0px);"><defs><clipPath id="__lottie_element_796"><rect width="476" height="134" x="0" y="0"></rect></clipPath><clipPath id="__lottie_element_798"><path d="M0,0 L477,0 L477,135 L0,135z"></path></clipPath><filter id="__lottie_element_803"><feMorphology operator="erode" in="SourceGraphic" radius="0"></feMorphology></filter><mask id="__lottie_element_802"><path fill="#ffffff" clip-rule="nonzero" stroke="#ffffff" d=" M575.02197265625,-56.59299850463867 C575.02197265625,-56.59299850463867 367.0220031738281,-56.59299850463867 367.0220031738281,-56.59299850463867 C367.0220031738281,-56.59299850463867 367.0220031738281,103.40699768066406 367.0220031738281,103.40699768066406 C367.0220031738281,103.40699768066406 575.02197265625,103.40699768066406 575.02197265625,103.40699768066406 C575.02197265625,103.40699768066406 575.02197265625,-56.59299850463867 575.02197265625,-56.59299850463867" fill-opacity="1" filter="null" stroke-width="764"></path></mask><clipPath id="__lottie_element_806"><path d="M0,0 L477,0 L477,135 L0,135z"></path></clipPath></defs><g clip-path="url(#__lottie_element_796)"><g clip-path="url(#__lottie_element_798)" transform="matrix(1,0,0,1,-0.5,-0.5)" opacity="1" style="display: block;"><g mask="url(#__lottie_element_802)" transform="matrix(1,0,0,1,115.97799682617188,41.592002868652344)" opacity="1" style="display: block;"><g opacity="1" transform="matrix(1,0,0,1,20.017000198364258,25.5939998626709)"><path fill="rgb(255,255,255)" fill-opacity="1" d=" M19.767000198364258,-25.062000274658203 C19.767000198364258,-25.062000274658203 19.767000198364258,25.062000274658203 19.767000198364258,25.062000274658203 C19.767000198364258,25.062000274658203 14.824999809265137,25.062000274658203 14.824999809265137,25.062000274658203 C14.824999809265137,25.062000274658203 14.824999809265137,1.6239999532699585 14.824999809265137,1.6239999532699585 C14.824999809265137,1.6239999532699585 -14.895999908447266,1.6239999532699585 -14.895999908447266,1.6239999532699585 C-14.895999908447266,1.6239999532699585 -14.895999908447266,25.062000274658203 -14.895999908447266,25.062000274658203 C-14.895999908447266,25.062000274658203 -19.767000198364258,25.062000274658203 -19.767000198364258,25.062000274658203 C-19.767000198364258,25.062000274658203 -19.767000198364258,-25.062000274658203 -19.767000198364258,-25.062000274658203 C-19.767000198364258,-25.062000274658203 -14.895999908447266,-25.062000274658203 -14.895999908447266,-25.062000274658203 C-14.895999908447266,-25.062000274658203 -14.895999908447266,-2.753000020980835 -14.895999908447266,-2.753000020980835 C-14.895999908447266,-2.753000020980835 14.824999809265137,-2.753000020980835 14.824999809265137,-2.753000020980835 C14.824999809265137,-2.753000020980835 14.824999809265137,-25.062000274658203 14.824999809265137,-25.062000274658203 C14.824999809265137,-25.062000274658203 19.767000198364258,-25.062000274658203 19.767000198364258,-25.062000274658203z"></path></g><g opacity="1" transform="matrix(1,0,0,1,69.25800323486328,25.5939998626709)"><path fill="rgb(255,255,255)" fill-opacity="1" d=" M16.836999893188477,20.68400001525879 C16.836999893188477,20.68400001525879 16.836999893188477,25.062000274658203 16.836999893188477,25.062000274658203 C16.836999893188477,25.062000274658203 -16.836999893188477,25.062000274658203 -16.836999893188477,25.062000274658203 C-16.836999893188477,25.062000274658203 -16.836999893188477,-25.062000274658203 -16.836999893188477,-25.062000274658203 C-16.836999893188477,-25.062000274658203 16.20199966430664,-25.062000274658203 16.20199966430664,-25.062000274658203 C16.20199966430664,-25.062000274658203 16.20199966430664,-20.684999465942383 16.20199966430664,-20.684999465942383 C16.20199966430664,-20.684999465942383 -11.965999603271484,-20.684999465942383 -11.965999603271484,-20.684999465942383 C-11.965999603271484,-20.684999465942383 -11.965999603271484,-2.6110000610351562 -11.965999603271484,-2.6110000610351562 C-11.965999603271484,-2.6110000610351562 12.60099983215332,-2.6110000610351562 12.60099983215332,-2.6110000610351562 C12.60099983215332,-2.6110000610351562 12.60099983215332,1.5529999732971191 12.60099983215332,1.5529999732971191 C12.60099983215332,1.5529999732971191 -11.965999603271484,1.5529999732971191 -11.965999603271484,1.5529999732971191 C-11.965999603271484,1.5529999732971191 -11.965999603271484,20.68400001525879 -11.965999603271484,20.68400001525879 C-11.965999603271484,20.68400001525879 16.836999893188477,20.68400001525879 16.836999893188477,20.68400001525879z"></path></g><g opacity="1" transform="matrix(1,0,0,1,114.08599853515625,25.665000915527344)"><path fill="rgb(255,255,255)" fill-opacity="1" d=" M-21.636999130249023,-0.42399999499320984 C-21.636999130249023,-3.434999942779541 -21.107999801635742,-6.434999942779541 -20.048999786376953,-9.423999786376953 C-18.989999771118164,-12.411999702453613 -17.450000762939453,-15.083999633789062 -15.425999641418457,-17.437999725341797 C-13.402999877929688,-19.790000915527344 -10.907999992370605,-21.708999633789062 -7.942999839782715,-23.19099998474121 C-4.978000164031982,-24.673999786376953 -1.6130000352859497,-25.415000915527344 2.1540000438690186,-25.415000915527344 C6.624000072479248,-25.415000915527344 10.435999870300293,-24.402000427246094 13.59000015258789,-22.378000259399414 C16.742000579833984,-20.354000091552734 19.094999313354492,-17.718000411987305 20.64900016784668,-14.470999717712402 C20.64900016784668,-14.470999717712402 16.69499969482422,-12.071999549865723 16.69499969482422,-12.071999549865723 C15.895000457763672,-13.718999862670898 14.930999755859375,-15.107000350952148 13.800999641418457,-16.236000061035156 C12.670999526977539,-17.365999221801758 11.446999549865723,-18.284000396728516 10.130000114440918,-18.989999771118164 C8.812000274658203,-19.695999145507812 7.447000026702881,-20.201000213623047 6.035999774932861,-20.507999420166016 C4.624000072479248,-20.81399917602539 3.234999895095825,-20.966999053955078 1.8700000047683716,-20.966999053955078 C-1.1419999599456787,-20.966999053955078 -3.802000045776367,-20.354999542236328 -6.10699987411499,-19.131999969482422 C-8.413000106811523,-17.906999588012695 -10.354999542236328,-16.308000564575195 -11.930999755859375,-14.331000328063965 C-13.508999824523926,-12.354999542236328 -14.696000099182129,-10.130999565124512 -15.494999885559082,-7.659999847412109 C-16.29599952697754,-5.189000129699707 -16.69700050354004,-2.683000087738037 -16.69700050354004,-0.14100000262260437 C-16.69700050354004,2.635999917984009 -16.21500015258789,5.295000076293945 -15.24899959564209,7.836999893188477 C-14.28499984741211,10.378000259399414 -12.967000007629395,12.62600040435791 -11.295999526977539,14.579000473022461 C-9.62600040435791,16.533000946044922 -7.64900016784668,18.086000442504883 -5.366000175476074,19.238000869750977 C-3.0840001106262207,20.392000198364258 -0.6000000238418579,20.966999053955078 2.0820000171661377,20.966999053955078 C3.49399995803833,20.966999053955078 4.940999984741211,20.791000366210938 6.423999786376953,20.437999725341797 C7.906000137329102,20.084999084472656 9.340999603271484,19.520000457763672 10.729999542236328,18.743000030517578 C12.118000030517578,17.965999603271484 13.401000022888184,17.00200080871582 14.57699966430664,15.847999572753906 C15.753999710083008,14.696000099182129 16.743000030517578,13.295999526977539 17.54400062561035,11.64799976348877 C17.54400062561035,11.64799976348877 21.636999130249023,13.765999794006348 21.636999130249023,13.765999794006348 C20.836000442504883,15.64900016784668 19.707000732421875,17.308000564575195 18.249000549316406,18.743000030517578 C16.788999557495117,20.179000854492188 15.166999816894531,21.389999389648438 13.378000259399414,22.378000259399414 C11.58899974822998,23.367000579833984 9.694999694824219,24.121000289916992 7.695000171661377,24.638999938964844 C5.693999767303467,25.1560001373291 3.7290000915527344,25.415000915527344 1.7999999523162842,25.415000915527344 C-1.6369999647140503,25.415000915527344 -4.789999961853027,24.663000106811523 -7.659999847412109,23.1560001373291 C-10.531999588012695,21.649999618530273 -13.003000259399414,19.68600082397461 -15.072999954223633,17.261999130249023 C-17.143999099731445,14.838000297546387 -18.756000518798828,12.083999633789062 -19.909000396728516,9.00100040435791 C-21.062000274658203,5.919000148773193 -21.636999130249023,2.7769999504089355 -21.636999130249023,-0.42399999499320984z"></path></g><g opacity="1" transform="matrix(1,0,0,1,163.8560028076172,25.5939998626709)"><path fill="rgb(255,255,255)" fill-opacity="1" d=" M-19.520000457763672,25.06100082397461 C-19.520000457763672,25.06100082397461 -19.520000457763672,-24.989999771118164 -19.520000457763672,-24.989999771118164 C-19.520000457763672,-24.989999771118164 -14.64900016784668,-24.989999771118164 -14.64900016784668,-24.989999771118164 C-14.64900016784668,-24.989999771118164 -14.64900016784668,4.093999862670898 -14.64900016784668,4.093999862670898 C-14.64900016784668,4.093999862670898 12.954000473022461,-25.06100082397461 12.954000473022461,-25.06100082397461 C12.954000473022461,-25.06100082397461 18.389999389648438,-25.06100082397461 18.389999389648438,-25.06100082397461 C18.389999389648438,-25.06100082397461 -2.0829999446868896,-3.0350000858306885 -2.0829999446868896,-3.0350000858306885 C-2.0829999446868896,-3.0350000858306885 19.520000457763672,25.06100082397461 19.520000457763672,25.06100082397461 C19.520000457763672,25.06100082397461 14.083999633789062,25.06100082397461 14.083999633789062,25.06100082397461 C14.083999633789062,25.06100082397461 -5.118000030517578,-0.14100000262260437 -5.118000030517578,-0.14100000262260437 C-5.118000030517578,-0.14100000262260437 -14.64900016784668,9.670999526977539 -14.64900016784668,9.670999526977539 C-14.64900016784668,9.670999526977539 -14.64900016784668,25.06100082397461 -14.64900016784668,25.06100082397461 C-14.64900016784668,25.06100082397461 -19.520000457763672,25.06100082397461 -19.520000457763672,25.06100082397461z"></path></g><g opacity="1" transform="matrix(1,0,0,1,204.90699768066406,25.5939998626709)"><path fill="rgb(255,255,255)" fill-opacity="1" d=" M20.332000732421875,-20.68400001525879 C20.332000732421875,-20.68400001525879 2.4709999561309814,-20.68400001525879 2.4709999561309814,-20.68400001525879 C2.4709999561309814,-20.68400001525879 2.4709999561309814,25.06100082397461 2.4709999561309814,25.06100082397461 C2.4709999561309814,25.06100082397461 -2.4709999561309814,25.06100082397461 -2.4709999561309814,25.06100082397461 C-2.4709999561309814,25.06100082397461 -2.4709999561309814,-20.68400001525879 -2.4709999561309814,-20.68400001525879 C-2.4709999561309814,-20.68400001525879 -20.332000732421875,-20.68400001525879 -20.332000732421875,-20.68400001525879 C-20.332000732421875,-20.68400001525879 -20.332000732421875,-25.06100082397461 -20.332000732421875,-25.06100082397461 C-20.332000732421875,-25.06100082397461 20.332000732421875,-25.06100082397461 20.332000732421875,-25.06100082397461 C20.332000732421875,-25.06100082397461 20.332000732421875,-20.68400001525879 20.332000732421875,-20.68400001525879z"></path></g><g opacity="1" transform="matrix(1,0,0,1,245.60499572753906,25.5939998626709)"><path fill="rgb(255,255,255)" fill-opacity="1" d=" M-22.979000091552734,25.06100082397461 C-22.979000091552734,25.06100082397461 -2.010999917984009,-25.06100082397461 -2.010999917984009,-25.06100082397461 C-2.010999917984009,-25.06100082397461 2.013000011444092,-25.06100082397461 2.013000011444092,-25.06100082397461 C2.013000011444092,-25.06100082397461 22.979000091552734,25.06100082397461 22.979000091552734,25.06100082397461 C22.979000091552734,25.06100082397461 17.684999465942383,25.06100082397461 17.684999465942383,25.06100082397461 C17.684999465942383,25.06100082397461 11.1899995803833,9.390999794006348 11.1899995803833,9.390999794006348 C11.1899995803833,9.390999794006348 -11.329999923706055,9.390999794006348 -11.329999923706055,9.390999794006348 C-11.329999923706055,9.390999794006348 -17.7549991607666,25.06100082397461 -17.7549991607666,25.06100082397461 C-17.7549991607666,25.06100082397461 -22.979000091552734,25.06100082397461 -22.979000091552734,25.06100082397461z M0.035999998450279236,-19.273000717163086 C0.035999998450279236,-19.273000717163086 -10.270999908447266,5.506999969482422 -10.270999908447266,5.506999969482422 C-10.270999908447266,5.506999969482422 10.0600004196167,5.506999969482422 10.0600004196167,5.506999969482422 C10.0600004196167,5.506999969482422 0.035999998450279236,-19.273000717163086 0.035999998450279236,-19.273000717163086z"></path></g><g opacity="1" transform="matrix(1,0,0,1,294.4209899902344,25.5939998626709)"><path fill="rgb(255,255,255)" fill-opacity="1" d=" M-18.566999435424805,25.062000274658203 C-18.566999435424805,25.062000274658203 -18.566999435424805,-25.062000274658203 -18.566999435424805,-25.062000274658203 C-18.566999435424805,-25.062000274658203 2.5420000553131104,-25.062000274658203 2.5420000553131104,-25.062000274658203 C4.705999851226807,-25.062000274658203 6.706999778747559,-24.60300064086914 8.541999816894531,-23.68600082397461 C10.378000259399414,-22.76799964904785 11.954000473022461,-21.566999435424805 13.272000312805176,-20.084999084472656 C14.59000015258789,-18.601999282836914 15.61299991607666,-16.91900062561035 16.343000411987305,-15.038000106811523 C17.07200050354004,-13.154000282287598 17.437999725341797,-11.248000144958496 17.437999725341797,-9.317999839782715 C17.437999725341797,-7.482999801635742 17.166000366210938,-5.729000091552734 16.625999450683594,-4.059000015258789 C16.083999633789062,-2.38700008392334 15.319999694824219,-0.8820000290870667 14.331000328063965,0.46000000834465027 C13.343000411987305,1.8009999990463257 12.166000366210938,2.930000066757202 10.802000045776367,3.8480000495910645 C9.435999870300293,4.765999794006348 7.9070000648498535,5.389999866485596 6.2129998207092285,5.718999862670898 C6.2129998207092285,5.718999862670898 18.566999435424805,25.062000274658203 18.566999435424805,25.062000274658203 C18.566999435424805,25.062000274658203 12.991000175476074,25.062000274658203 12.991000175476074,25.062000274658203 C12.991000175476074,25.062000274658203 1.1299999952316284,6.565999984741211 1.1299999952316284,6.565999984741211 C1.1299999952316284,6.565999984741211 -13.694999694824219,6.565999984741211 -13.694999694824219,6.565999984741211 C-13.694999694824219,6.565999984741211 -13.694999694824219,25.062000274658203 -13.694999694824219,25.062000274658203 C-13.694999694824219,25.062000274658203 -18.566999435424805,25.062000274658203 -18.566999435424805,25.062000274658203z M-13.694999694824219,2.188999891281128 C-13.694999694824219,2.188999891281128 2.753999948501587,2.188999891281128 2.753999948501587,2.188999891281128 C4.211999893188477,2.188999891281128 5.541999816894531,1.871999979019165 6.742000102996826,1.2359999418258667 C7.942999839782715,0.6010000109672546 8.965999603271484,-0.2590000033378601 9.812999725341797,-1.3420000076293945 C10.65999984741211,-2.4240000247955322 11.319000244140625,-3.6459999084472656 11.789999961853027,-5.01200008392334 C12.260000228881836,-6.375999927520752 12.496000289916992,-7.810999870300293 12.496000289916992,-9.317999839782715 C12.496000289916992,-10.824000358581543 12.223999977111816,-12.270999908447266 11.684000015258789,-13.66100025177002 C11.142999649047852,-15.04800033569336 10.413000106811523,-16.26099967956543 9.494999885559082,-17.29599952697754 C8.57800006866455,-18.33099937438965 7.49399995803833,-19.155000686645508 6.248000144958496,-19.76799964904785 C5.000999927520752,-20.378000259399414 3.694999933242798,-20.68400001525879 2.3299999237060547,-20.68400001525879 C2.3299999237060547,-20.68400001525879 -13.694999694824219,-20.68400001525879 -13.694999694824219,-20.68400001525879 C-13.694999694824219,-20.68400001525879 -13.694999694824219,2.188999891281128 -13.694999694824219,2.188999891281128z"></path></g><g opacity="1" transform="matrix(1,0,0,1,339.28399658203125,25.5939998626709)"><path fill="rgb(255,255,255)" fill-opacity="1" d=" M16.836999893188477,20.68400001525879 C16.836999893188477,20.68400001525879 16.836999893188477,25.062000274658203 16.836999893188477,25.062000274658203 C16.836999893188477,25.062000274658203 -16.836999893188477,25.062000274658203 -16.836999893188477,25.062000274658203 C-16.836999893188477,25.062000274658203 -16.836999893188477,-25.062000274658203 -16.836999893188477,-25.062000274658203 C-16.836999893188477,-25.062000274658203 16.20199966430664,-25.062000274658203 16.20199966430664,-25.062000274658203 C16.20199966430664,-25.062000274658203 16.20199966430664,-20.684999465942383 16.20199966430664,-20.684999465942383 C16.20199966430664,-20.684999465942383 -11.96500015258789,-20.684999465942383 -11.96500015258789,-20.684999465942383 C-11.96500015258789,-20.684999465942383 -11.96500015258789,-2.6110000610351562 -11.96500015258789,-2.6110000610351562 C-11.96500015258789,-2.6110000610351562 12.60099983215332,-2.6110000610351562 12.60099983215332,-2.6110000610351562 C12.60099983215332,-2.6110000610351562 12.60099983215332,1.5529999732971191 12.60099983215332,1.5529999732971191 C12.60099983215332,1.5529999732971191 -11.96500015258789,1.5529999732971191 -11.96500015258789,1.5529999732971191 C-11.96500015258789,1.5529999732971191 -11.96500015258789,20.68400001525879 -11.96500015258789,20.68400001525879 C-11.96500015258789,20.68400001525879 16.836999893188477,20.68400001525879 16.836999893188477,20.68400001525879z"></path></g></g><g clip-path="url(#__lottie_element_806)" transform="matrix(1,0,0,1,-182,0)" opacity="1" style="display: block;"><g transform="matrix(1,0,0,1,189.0489959716797,39.85700225830078)" opacity="1" style="display: block;"><g opacity="1" transform="matrix(1,0,0,1,38.43199920654297,38.48500061035156)"><path fill="rgb(1,142,66)" fill-opacity="0" d=" M-16.136999130249023,-38.23500061035156 C5.882999897003174,-38.23500061035156 37.237998962402344,-38.23500061035156 37.237998962402344,-38.23500061035156 C37.7599983215332,-38.23500061035156 38.18299865722656,-37.81100082397461 38.18299865722656,-37.2869987487793 C38.18299865722656,-37.2869987487793 38.18299865722656,37.2859992980957 38.18299865722656,37.2859992980957 C38.18299865722656,37.810001373291016 37.7599983215332,38.23500061035156 37.237998962402344,38.23500061035156 C37.237998962402344,38.23500061035156 37.237998962402344,38.23500061035156 37.237998962402344,38.23500061035156 C37.237998962402344,38.23500061035156 -37.23699951171875,38.23500061035156 -37.23699951171875,38.23500061035156 C-37.75899887084961,38.23500061035156 -38.18299865722656,37.810001373291016 -38.18299865722656,37.2859992980957 C-38.18299865722656,37.2859992980957 -38.18299865722656,-37.2869987487793 -38.18299865722656,-37.2869987487793 C-38.18299865722656,-37.81100082397461 -37.75899887084961,-38.23500061035156 -37.23699951171875,-38.23500061035156 C-37.23699951171875,-38.23500061035156 -28.054000854492188,-38.23500061035156 -16.136999130249023,-38.23500061035156"></path><path stroke-linecap="butt" stroke-linejoin="miter" fill-opacity="0" stroke-miterlimit="4" stroke="rgb(1,142,66)" stroke-opacity="1" stroke-width="2" d=" M-16.136999130249023,-38.23500061035156 C5.882999897003174,-38.23500061035156 37.237998962402344,-38.23500061035156 37.237998962402344,-38.23500061035156 C37.7599983215332,-38.23500061035156 38.18299865722656,-37.81100082397461 38.18299865722656,-37.2869987487793 C38.18299865722656,-37.2869987487793 38.18299865722656,37.2859992980957 38.18299865722656,37.2859992980957 C38.18299865722656,37.810001373291016 37.7599983215332,38.23500061035156 37.237998962402344,38.23500061035156 C37.237998962402344,38.23500061035156 37.237998962402344,38.23500061035156 37.237998962402344,38.23500061035156 C37.237998962402344,38.23500061035156 -37.23699951171875,38.23500061035156 -37.23699951171875,38.23500061035156 C-37.75899887084961,38.23500061035156 -38.18299865722656,37.810001373291016 -38.18299865722656,37.2859992980957 C-38.18299865722656,37.2859992980957 -38.18299865722656,-37.2869987487793 -38.18299865722656,-37.2869987487793 C-38.18299865722656,-37.81100082397461 -37.75899887084961,-38.23500061035156 -37.23699951171875,-38.23500061035156 C-37.23699951171875,-38.23500061035156 -28.054000854492188,-38.23500061035156 -16.136999130249023,-38.23500061035156"></path></g></g><g transform="matrix(1,0,0,1,235.04100036621094,63.637001037597656)" opacity="1" style="display: block;"><g opacity="1" transform="matrix(1,0,0,1,4.079999923706055,4.085999965667725)"><path fill="rgb(1,142,66)" fill-opacity="1" d=" M-0.0010000000474974513,3.8369998931884766 C-2.111999988555908,3.8369998931884766 -3.8310000896453857,2.115000009536743 -3.8310000896453857,-0.0010000000474974513 C-3.8310000896453857,-2.115999937057495 -2.111999988555908,-3.8369998931884766 -0.0010000000474974513,-3.8369998931884766 C2.1110000610351562,-3.8369998931884766 3.8310000896453857,-2.115999937057495 3.8310000896453857,-0.0010000000474974513 C3.8310000896453857,2.115000009536743 2.1110000610351562,3.8369998931884766 -0.0010000000474974513,3.8369998931884766z M-0.0010000000474974513,-1.9390000104904175 C-1.069000005722046,-1.9390000104904175 -1.9390000104904175,-1.0700000524520874 -1.9390000104904175,-0.0010000000474974513 C-1.9390000104904175,1.069000005722046 -1.069000005722046,1.9390000104904175 -0.0010000000474974513,1.9390000104904175 C1.0679999589920044,1.9390000104904175 1.9390000104904175,1.069000005722046 1.9390000104904175,-0.0010000000474974513 C1.9390000104904175,-1.0700000524520874 1.0679999589920044,-1.9390000104904175 -0.0010000000474974513,-1.9390000104904175z"></path></g></g><g transform="matrix(1,0,0,1,238.5,67.5)" opacity="1" style="display: block;"><g opacity="1" transform="matrix(1,0,0,1,0,0)"><path fill="rgb(255,156,1)" fill-opacity="0" d=" M-27.25,-27.25 C-27.25,-27.25 -27.25,-48.29999923706055 -27.25,-48.29999923706055 C-27.25,-48.41038131713867 -27.16037940979004,-48.5 -27.049999237060547,-48.5 C-27.049999237060547,-48.5 47.04999923706055,-48.5 47.04999923706055,-48.5 C47.16038131713867,-48.5 47.25,-48.41038131713867 47.25,-48.29999923706055 C47.25,-48.29999923706055 47.25,25.299999237060547 47.25,25.299999237060547 C47.25,25.41037940979004 47.16038131713867,25.5 47.04999923706055,25.5 C47.04999923706055,25.5 -27.049999237060547,25.5 -27.049999237060547,25.5 C-27.16037940979004,25.5 -27.25,25.41037940979004 -27.25,25.299999237060547 C-27.25,25.299999237060547 -27.25,0.949999988079071 -27.25,0.949999988079071 C-27.25,0.8396199941635132 -27.16037940979004,0.75 -27.049999237060547,0.75 C-27.049999237060547,0.75 -7.125,0.75 -7.125,0.75"></path><path stroke-linecap="butt" stroke-linejoin="miter" fill-opacity="0" stroke-miterlimit="4" stroke="rgb(1,142,66)" stroke-opacity="1" stroke-width="2" d=" M-27.25,-27.25 C-27.25,-27.25 -27.25,-48.29999923706055 -27.25,-48.29999923706055 C-27.25,-48.41038131713867 -27.16037940979004,-48.5 -27.049999237060547,-48.5 C-27.049999237060547,-48.5 47.04999923706055,-48.5 47.04999923706055,-48.5 C47.16038131713867,-48.5 47.25,-48.41038131713867 47.25,-48.29999923706055 C47.25,-48.29999923706055 47.25,25.299999237060547 47.25,25.299999237060547 C47.25,25.41037940979004 47.16038131713867,25.5 47.04999923706055,25.5 C47.04999923706055,25.5 -27.049999237060547,25.5 -27.049999237060547,25.5 C-27.16037940979004,25.5 -27.25,25.41037940979004 -27.25,25.299999237060547 C-27.25,25.299999237060547 -27.25,0.949999988079071 -27.25,0.949999988079071 C-27.25,0.8396199941635132 -27.16037940979004,0.75 -27.049999237060547,0.75 C-27.049999237060547,0.75 -7.125,0.75 -7.125,0.75"></path></g></g></g></g></g></svg>